<?xml version="1.0" encoding="UTF-8" standalone="no"?>
<!-- Created with Inkscape (http://www.inkscape.org/) -->

<svg
   xmlns:dc="http://purl.org/dc/elements/1.1/"
   xmlns:cc="http://creativecommons.org/ns#"
   xmlns:rdf="http://www.w3.org/1999/02/22-rdf-syntax-ns#"
   xmlns:svg="http://www.w3.org/2000/svg"
   xmlns="http://www.w3.org/2000/svg"
   xmlns:sodipodi="http://sodipodi.sourceforge.net/DTD/sodipodi-0.dtd"
   xmlns:inkscape="http://www.inkscape.org/namespaces/inkscape"
   width="393"
   height="103"
   id="svg3124"
   version="1.1"
   inkscape:version="0.48.4 r9939"
   sodipodi:docname="New document 2">
  <defs
     id="defs3126" />
  <sodipodi:namedview
     id="base"
     pagecolor="#ffffff"
     bordercolor="#666666"
     borderopacity="1.0"
     inkscape:pageopacity="0.0"
     inkscape:pageshadow="2"
     inkscape:zoom="0.77472527"
     inkscape:cx="268.36879"
     inkscape:cy="240"
     inkscape:current-layer="layer1"
     inkscape:document-units="px"
     showgrid="false"
     inkscape:window-width="1309"
     inkscape:window-height="741"
     inkscape:window-x="57"
     inkscape:window-y="27"
     inkscape:window-maximized="1" />
  <metadata
     id="metadata3129">
    <rdf:RDF>
      <cc:Work
         rdf:about="">
        <dc:format>image/svg+xml</dc:format>
        <dc:type
           rdf:resource="http://purl.org/dc/dcmitype/StillImage" />
        <dc:title></dc:title>
      </cc:Work>
    </rdf:RDF>
  </metadata>
  <g
     id="layer1"
     inkscape:label="Layer 1"
     inkscape:groupmode="layer"
     transform="translate(0,-377)">
    <g
       transform="translate(140.25523,-18.46811)"
       style="font-size:40px;font-style:normal;font-weight:normal;line-height:125%;letter-spacing:0px;word-spacing:0px;fill:#000000;fill-opacity:1;stroke:none;font-family:Sans"
       id="text3039-8-4">
      <path
         inkscape:connector-curvature="0"
         d="m -88.280365,449.88531 c -5.3e-5,0.65107 -0.03261,1.31839 -0.09766,2.00196 -0.0326,0.65106 -0.130261,1.3021 -0.292969,1.95312 -0.130261,0.55341 -0.309297,1.07424 -0.537109,1.5625 -0.195365,0.45575 -0.325573,0.96031 -0.390625,1.51367 -0.06516,0.32554 -0.13026,0.68362 -0.195313,1.07422 -0.06515,0.35809 -0.309296,0.53713 -0.732422,0.53711 l -0.390625,-0.0488 c -0.520883,2e-5 -0.911508,0.21161 -1.171875,0.63477 -0.260465,0.39064 -0.472054,0.87892 -0.634765,1.46484 -0.130257,0.5534 -0.244189,1.12307 -0.341797,1.70899 -0.06515,0.58595 -0.146533,1.05795 -0.244141,1.41601 -0.0977,0.35809 -0.162808,0.68361 -0.195312,0.97657 -4.8e-5,0.26042 -0.01632,0.50456 -0.04883,0.73242 -4.8e-5,0.19532 -0.06515,0.40691 -0.195313,0.63476 -0.130256,0.22788 -0.35812,0.47202 -0.683594,0.73243 -0.520879,0.39063 -1.025436,0.76498 -1.513672,1.12304 -0.488326,0.35808 -0.927778,0.78126 -1.318359,1.26953 -0.293012,0.35808 -0.488325,0.66733 -0.585937,0.92774 -0.0977,0.26042 -0.195356,0.50456 -0.292969,0.73242 -0.0977,0.22787 -0.26046,0.43946 -0.488281,0.63477 -0.195355,0.16276 -0.537152,0.32552 -1.025391,0.48828 -0.748746,0.26042 -1.464886,0.55339 -2.148446,0.8789 -0.68363,0.32553 -1.3835,0.6185 -2.0996,0.87891 -0.8464,0.32552 -1.64392,0.69987 -2.39258,1.12305 -0.74874,0.39062 -1.51371,0.76497 -2.29492,1.12304 -0.78129,0.35808 -1.59509,0.65104 -2.44141,0.87891 -0.81383,0.26042 -1.69274,0.39062 -2.63672,0.39062 -0.84638,0 -1.69273,-0.1302 -2.53906,-0.39062 -0.81383,-0.26042 -1.5788,-0.61849 -2.29492,-1.07422 -0.68362,-0.0651 -1.20445,-0.30924 -1.5625,-0.73242 -0.3581,-0.42318 -0.65107,-0.92773 -0.87891,-1.51367 -0.19533,-0.45573 -0.39065,-0.78125 -0.58594,-0.97657 -0.16278,-0.1953 -0.35809,-0.32551 -0.58594,-0.39062 -0.19533,-0.0976 -0.42319,-0.17903 -0.68359,-0.24414 -0.26043,-0.0651 -0.56968,-0.21158 -0.92773,-0.43945 -1.46486,-0.94401 -2.7995,-2.11588 -4.00391,-3.51563 -1.20444,-1.43228 -2.32749,-2.86457 -3.36914,-4.29687 -0.22788,-0.32551 -0.40691,-0.69986 -0.53711,-1.12305 -0.0977,-0.45572 -0.19532,-0.89517 -0.29297,-1.31836 -0.0977,-0.45571 -0.2116,-0.87889 -0.3418,-1.26953 -0.0977,-0.42316 -0.26042,-0.74868 -0.48828,-0.97656 -0.42318,-0.42316 -0.79753,-0.65103 -1.12304,-0.6836 -0.32553,-0.0325 -0.60222,-0.0976 -0.83008,-0.19531 -0.19532,-0.13019 -0.35808,-0.40688 -0.48828,-0.83008 -0.0977,-0.45571 -0.14649,-1.28579 -0.14649,-2.49023 0,-0.74868 -0.0651,-1.52993 -0.19531,-2.34375 -0.13021,-0.81378 -0.29297,-1.64386 -0.48828,-2.49024 -0.16277,-0.87888 -0.30925,-1.75778 -0.43945,-2.63672 -0.13022,-0.91142 -0.19532,-1.80661 -0.19532,-2.68554 0,-0.94398 0.0488,-1.88799 0.14649,-2.83203 0.1302,-0.94398 0.27669,-1.88799 0.43945,-2.83204 0.16276,-0.94397 0.32552,-1.8717 0.48828,-2.7832 0.16276,-0.94397 0.27669,-1.88798 0.3418,-2.83203 0.0651,-0.87886 0.0976,-1.77404 0.0977,-2.68555 0.0325,-0.91141 0.0651,-1.82287 0.0977,-2.73437 0.0651,-0.91141 0.16276,-1.80659 0.29297,-2.68555 0.1302,-0.87885 0.35807,-1.74148 0.68359,-2.58789 0.32552,-0.9114 0.73242,-1.77403 1.22071,-2.58789 0.52082,-0.81374 1.02538,-1.62755 1.51367,-2.44141 0.48827,-0.81374 0.944,-1.64382 1.36719,-2.49023 0.42316,-0.84629 0.74868,-1.75775 0.97656,-2.73438 0.13019,-0.61842 0.5371,-1.18808 1.2207,-1.70898 0.68358,-0.55332 1.52993,-1.05788 2.53906,-1.51367 1.0091,-0.48822 2.0996,-0.91139 3.27149,-1.26953 1.20441,-0.39056 2.39256,-0.71608 3.56445,-0.97657 1.17185,-0.29289 2.24607,-0.50448 3.22266,-0.63476 1.00909,-0.16269 1.82289,-0.24407 2.4414,-0.24414 1.62758,7e-5 3.15752,0.21166 4.58985,0.63476 1.43226,0.3907 2.88082,0.91153 4.3457,1.5625 0.651,0.29304 1.35087,0.53718 2.09961,0.73243 0.78121,0.16282 1.51363,0.2442 2.19727,0.24414 0.683552,6e-5 1.188108,-0.11387 1.513672,-0.3418 0.358029,-0.26035 0.634722,-0.55332 0.830078,-0.87891 0.195268,-0.358 0.358029,-0.68352 0.488282,-0.97656 0.130163,-0.32545 0.325475,-0.56959 0.585937,-0.73242 l -0.146484,0.0488 c 0.06506,-0.065 0.178991,-0.0976 0.341797,-0.0977 0.162714,-0.0325 0.341751,-0.0488 0.537109,-0.0488 0.26037,0.0326 0.569615,0.0977 0.927734,0.19532 0.390578,0.0977 0.781203,0.21165 1.171875,0.34179 0.390577,0.13028 0.748649,0.27676 1.074219,0.43946 0.358023,0.13027 0.61844,0.26048 0.78125,0.39062 0.09761,0.0652 0.260367,0.27676 0.488281,0.63477 0.227814,0.35814 0.455679,0.74876 0.683594,1.17187 0.260365,0.42324 0.471954,0.81387 0.634766,1.17188 0.19526,0.35813 0.292916,0.586 0.292968,0.68359 -5.2e-5,0.81387 0.113881,1.57884 0.341797,2.29492 0.260364,0.71621 0.390573,1.48118 0.390625,2.29492 -5.2e-5,0.84642 -0.130261,1.67649 -0.390625,2.49024 -0.227916,0.81386 -0.341849,1.64393 -0.341797,2.49023 -5.2e-5,1.04172 0.01622,2.06711 0.04883,3.07617 0.06505,0.97662 0.0976,1.98573 0.09766,3.02735 -5.2e-5,0.94406 -0.04888,1.88807 -0.146485,2.83203 -0.06516,0.9115 -0.195364,1.82296 -0.390625,2.73437 -0.06516,0.26046 -0.130259,0.56971 -0.195312,0.92774 -0.06516,0.35811 -0.162812,0.69991 -0.292969,1.02539 -0.09771,0.32556 -0.244191,0.60225 -0.439453,0.83008 -0.162811,0.2279 -0.390675,0.34183 -0.683594,0.34179 -0.293018,4e-5 -0.553435,-0.0488 -0.78125,-0.14648 -0.162809,0.0326 -0.309293,0.0651 -0.439453,0.0977 -0.130257,4e-5 -0.276741,4e-5 -0.439453,0 -0.293017,4e-5 -0.472053,-0.0488 -0.537109,-0.14649 -0.06515,-0.0976 -0.0977,-0.21155 -0.09766,-0.3418 -4.7e-5,-0.16271 -0.0326,-0.32547 -0.09766,-0.48828 -0.0326,-0.19527 -0.19536,-0.3743 -0.488281,-0.53711 -0.19536,-0.13016 -0.455776,-0.21154 -0.78125,-0.24414 -0.325567,-0.0325 -0.651087,-0.0651 -0.976563,-0.0976 -0.293013,-0.0651 -0.55343,-0.16272 -0.78125,-0.29297 -0.227909,-0.16272 -0.341841,-0.40686 -0.341796,-0.73242 -4.5e-5,-0.35803 0.06506,-0.53707 0.195312,-0.53711 0.162716,-0.0325 0.341752,0.0163 0.537109,0.14648 0.22782,0.13025 0.47196,0.26046 0.732422,0.39063 0.260371,0.0977 0.504511,0.0977 0.732422,0 -0.455775,-0.52079 -0.862676,-1.0579 -1.220703,-1.61133 -0.325566,-0.58589 -0.667362,-1.17183 -1.025391,-1.75781 -0.325564,-0.58589 -0.667361,-1.17183 -1.02539,-1.75782 -0.358116,-0.58588 -0.765017,-1.12299 -1.220703,-1.61132 -0.390667,-0.42313 -0.716193,-0.91141 -0.976563,-1.46485 -0.26046,-0.55333 -0.52088,-1.10672 -0.78125,-1.66015 -0.22791,-0.58589 -0.48832,-1.123 -0.78125,-1.61133 -0.26046,-0.52078 -0.60225,-0.94396 -1.02539,-1.26953 -1.49744,-1.13927 -3.15759,-2.13211 -4.98047,-2.97852 -1.7904,-0.87885 -3.66214,-1.3183 -5.61524,-1.31836 -1.36721,6e-5 -2.63674,0.21165 -3.80859,0.63477 -1.13935,0.39068 -2.27867,0.92779 -3.41797,1.61132 -0.45575,0.26048 -0.8952,0.48834 -1.31836,0.6836 -0.39064,0.19537 -0.78127,0.42323 -1.17187,0.68359 -0.35809,0.22792 -0.68361,0.52089 -0.97656,0.87891 -0.26044,0.32558 -0.45575,0.7813 -0.58594,1.36719 -0.16278,0.58599 -0.24416,1.1882 -0.24414,1.80664 0.0325,0.61854 -0.11395,1.1882 -0.43946,1.70898 -0.16277,0.26047 -0.42319,0.47206 -0.78125,0.63477 -0.32553,0.16281 -0.53712,0.40695 -0.63476,0.73242 -0.26043,0.74875 -0.42319,1.52999 -0.48828,2.34375 -0.0326,0.81385 -0.0651,1.64392 -0.0977,2.49023 -1e-5,0.8464 -0.0163,1.70903 -0.0488,2.58789 -0.0326,0.8464 -0.16277,1.6602 -0.39062,2.44141 -0.19533,0.65108 -0.34181,1.30212 -0.43946,1.95312 -0.0651,0.65108 -0.0977,1.30212 -0.0977,1.95313 -1e-5,1.23701 0.0325,2.45772 0.0977,3.66211 0.0976,1.17191 0.14648,2.36006 0.14649,3.56445 -1e-5,1.46487 0.0651,2.89716 0.19531,4.29688 0.16275,1.39976 0.43944,2.7995 0.83008,4.19922 0.29295,1.04168 0.69985,2.0508 1.2207,3.02734 0.52082,0.94403 0.91144,1.93686 1.17188,2.97852 0.13019,0.55339 0.35805,1.13933 0.68359,1.75781 0.35806,0.6185 0.76496,1.18816 1.2207,1.70898 0.48827,0.52085 1.02538,0.9603 1.61133,1.31836 0.58592,0.32553 1.18813,0.48829 1.80664,0.48828 0.45571,1e-5 0.89516,-0.0488 1.31836,-0.14648 0.42316,-0.1302 0.86261,-0.1953 1.31836,-0.19531 0.48826,1e-5 0.97654,0.0488 1.46485,0.14648 0.48825,0.0651 0.97653,0.0977 1.46484,0.0977 0.87888,10e-6 1.79033,-0.11393 2.73437,-0.3418 0.97654,-0.22786 1.79034,-0.68358 2.44141,-1.36719 0.4557,-0.48827 0.97653,-0.83006 1.5625,-1.02539 0.5859,-0.1953 1.17184,-0.35806 1.75781,-0.48828 0.61846,-0.1302 1.20439,-0.29296 1.75782,-0.48828 0.55334,-0.22785 1.04162,-0.61848 1.46484,-1.17188 0.26038,-0.35805 0.52079,-0.91144 0.78125,-1.66015 0.29293,-0.74868 0.5859,-1.52993 0.87891,-2.34375 0.29292,-0.81379 0.585894,-1.54621 0.878904,-2.19727 0.325479,-0.68357 0.650999,-1.10675 0.976562,-1.26953 0.292926,-0.16274 0.471962,-0.56964 0.53711,-1.2207 0.09761,-0.68357 0.146441,-1.4811 0.146484,-2.39258 l 0,-2.24609 c -4.3e-5,-0.65102 0.01623,-1.28578 0.04883,-1.9043 0.03251,-0.61846 0.09761,-1.17185 0.195313,-1.66016 0.130164,-0.48825 0.309201,-0.87887 0.537109,-1.17187 0.22782,-0.29294 0.537065,-0.43942 0.927735,-0.43946 0.358027,4e-5 0.634719,0.13025 0.830078,0.39063 0.227818,0.2279 0.504511,0.34183 0.830078,0.3418 0.325474,3e-5 0.634718,-0.0976 0.927734,-0.29297 0.325473,-0.22783 0.66727,-0.34177 1.025391,-0.3418 0.488232,3e-5 0.927685,0.21162 1.318359,0.63477 0.423127,0.42321 0.797475,0.89521 1.123047,1.41601 0.358021,0.52087 0.634714,1.00915 0.830078,1.46485 0.227813,0.4232 0.390573,0.65107 0.488281,0.68359 0.325468,0.0651 0.504505,0.34182 0.53711,0.83008 0.06505,0.45575 0.0976,0.8301 0.09766,1.12304"
         style="fill:#ff6600;font-family:Special Elite;-inkscape-font-specification:Special Elite"
         id="path3142-3" />
      <path
         inkscape:connector-curvature="0"
         d="m -23.290131,473.61578 c -6e-5,0.55339 -0.09772,1.0905 -0.292968,1.61133 -0.16282,0.48828 -0.390685,0.96029 -0.683594,1.41602 -0.748756,0.0651 -1.481177,0.11393 -2.197266,0.14648 -0.68365,0.0326 -1.399795,0.0488 -2.148437,0.0488 -0.7162,0 -1.432345,-0.0163 -2.148438,-0.0488 -0.716197,0 -1.432343,0 -2.148437,0 -1.009164,0 -2.002002,0.0977 -2.978516,0.29297 -0.944057,0.19531 -1.920618,0.29297 -2.929687,0.29297 -1.334679,0 -2.050824,-0.69987 -2.148438,-2.09961 -0.455771,0 -0.862672,0.14648 -1.220703,0.43945 -0.358114,0.26042 -0.716186,0.53711 -1.074219,0.83008 -0.358112,0.32552 -0.748737,0.61849 -1.171875,0.87891 -0.423215,0.29296 -0.911496,0.43945 -1.464843,0.43945 -0.553423,0 -1.123084,-0.16276 -1.708985,-0.48828 -0.55342,-0.32552 -0.830113,-0.8138 -0.830078,-1.46484 -3.5e-5,-0.22787 0.04879,-0.43946 0.146484,-0.63477 0.130174,-0.19531 0.260382,-0.35807 0.390625,-0.48828 0.162725,-0.16276 0.309209,-0.29297 0.439454,-0.39063 0.130172,-0.1302 0.195276,-0.24414 0.195312,-0.34179 -3.6e-5,-0.16276 -0.06514,-0.30925 -0.195312,-0.43946 -0.130245,-0.1302 -0.293005,-0.26041 -0.488282,-0.39062 -0.162795,-0.13021 -0.30928,-0.26041 -0.439453,-0.39063 -0.130243,-0.16275 -0.195347,-0.35807 -0.195312,-0.58593 -3.5e-5,-0.52083 0.195277,-0.89518 0.585937,-1.12305 0.390589,-0.26041 0.895146,-0.43945 1.513672,-0.53711 0.618452,-0.0976 1.285769,-0.14648 2.001953,-0.14648 0.716106,-0.0326 1.415976,-0.0651 2.09961,-0.0977 0.683552,-0.0325 1.285765,-0.11393 1.80664,-0.24414 0.52079,-0.16276 0.878863,-0.43945 1.074219,-0.83008 0.325477,-0.58593 0.585893,-1.2858 0.78125,-2.09961 0.195268,-0.81379 0.341752,-1.66014 0.439453,-2.53906 0.130163,-0.8789 0.211543,-1.74152 0.244141,-2.58789 0.06506,-0.87889 0.09761,-1.66014 0.09766,-2.34375 -4.5e-5,-1.43228 -0.06515,-2.84829 -0.195313,-4.24805 -0.0977,-1.39972 -0.293013,-2.79945 -0.585937,-4.19922 -0.130253,-0.65101 -0.309289,-1.28578 -0.537109,-1.90429 -0.195357,-0.61847 -0.293013,-1.25323 -0.292969,-1.9043 -4.4e-5,-0.42315 0.06506,-0.7975 0.195312,-1.12305 0.130165,-0.32549 0.260373,-0.61846 0.390625,-0.8789 0.162716,-0.26039 0.3092,-0.50453 0.439453,-0.73243 0.130164,-0.26038 0.195268,-0.5208 0.195313,-0.78125 -4.5e-5,-0.55335 -0.162805,-1.02535 -0.488281,-1.41601 -0.325565,-0.42315 -0.569706,-0.87887 -0.732422,-1.36719 -0.162804,-0.45569 -0.276736,-0.91142 -0.341797,-1.36719 -0.0326,-0.48824 -0.146528,-0.96025 -0.341797,-1.41601 -0.162803,-0.32549 -0.374392,-0.61845 -0.634766,-0.87891 -0.260458,-0.29293 -0.520875,-0.56962 -0.78125,-0.83008 -0.260458,-0.29293 -0.520874,-0.56962 -0.78125,-0.83008 -0.260457,-0.26037 -0.455769,-0.56962 -0.585937,-0.92773 -1.139362,-0.0976 -2.229856,-0.14644 -3.271484,-0.14648 -1.432328,4e-5 -2.766962,0.0977 -4.003907,0.29296 -1.204459,0.16281 -2.360056,0.47205 -3.466797,0.92774 -1.074247,0.45577 -2.099636,1.05798 -3.076171,1.80664 -0.944036,0.74874 -1.87177,1.69274 -2.783204,2.83203 -0.325544,0.39066 -0.716168,0.83011 -1.171875,1.31836 -0.455751,0.48832 -0.91148,0.99287 -1.367187,1.51367 -0.45575,0.48832 -0.878927,0.99287 -1.269531,1.51367 -0.358093,0.52087 -0.585957,1.02542 -0.683594,1.51368 -0.32554,1.30211 -0.585956,2.76695 -0.78125,4.39453 -0.162779,1.62763 -0.244159,3.12502 -0.244141,4.49218 -1.8e-5,0.45575 0.04881,0.91148 0.146485,1.36719 0.13019,0.45575 0.260398,0.91148 0.390625,1.36719 0.162741,0.42319 0.292949,0.86265 0.390625,1.31836 0.130189,0.42319 0.195293,0.87892 0.195312,1.36719 -1.9e-5,0.22788 -0.06512,0.65105 -0.195312,1.26953 -0.130228,0.58595 -0.292988,1.18816 -0.488282,1.80664 -0.195331,0.6185 -0.406919,1.17188 -0.634765,1.66015 -0.227883,0.45574 -0.455747,0.68361 -0.683594,0.6836 0.06509,0.22787 0.292951,0.53712 0.683594,0.92773 0.390606,0.35808 0.830059,0.71616 1.318359,1.07422 0.520814,0.35808 1.009094,0.66733 1.464844,0.92774 0.48826,0.26042 0.846332,0.39063 1.074219,0.39062 0.292946,10e-6 0.569639,-0.0163 0.830078,-0.0488 0.292946,-0.0651 0.569638,-0.0976 0.830078,-0.0976 0.618465,0 1.285782,0.17904 2.001953,0.53711 0.748672,0.32552 1.367161,0.69987 1.855469,1.12304 0.520805,0.39063 0.83005,0.76498 0.927734,1.12305 0.09763,0.32552 -0.19534,0.48828 -0.878906,0.48828 -0.162788,0 -0.341824,0.0163 -0.537109,0.0488 -0.162788,0 -0.325548,0 -0.488282,0 -0.325547,0 -0.553411,-0.0814 -0.683593,-0.24414 -0.130234,-0.19531 -0.244167,-0.39062 -0.341797,-0.58594 -0.09768,-0.22786 -0.195338,-0.42317 -0.292969,-0.58594 -0.09768,-0.1953 -0.276718,-0.29296 -0.537109,-0.29297 -0.162785,1e-5 -0.276717,0.0977 -0.341797,0.29297 -0.03258,0.19532 -0.04885,0.35808 -0.04883,0.48828 -2.5e-5,0.29298 0.130184,0.60222 0.390625,0.92774 0.260391,0.29297 0.537084,0.60222 0.830078,0.92773 0.325495,0.32553 0.618463,0.66732 0.878906,1.02539 0.26039,0.32553 0.390598,0.66732 0.390625,1.02539 -2.7e-5,0.16277 -0.06513,0.2767 -0.195313,0.3418 -0.130234,0.0651 -0.260442,0.0977 -0.390625,0.0977 -0.325546,0 -0.651067,-0.0488 -0.976562,-0.14649 -0.292994,-0.0976 -0.602238,-0.14648 -0.927734,-0.14648 -0.292993,0 -0.569685,0.11393 -0.830079,0.3418 -0.260439,0.26041 -0.602236,0.5371 -1.02539,0.83007 -0.423199,0.29297 -0.976584,0.55339 -1.660156,0.78125 -0.683614,0.26042 -1.595072,0.39063 -2.734375,0.39063 -0.488299,0 -0.81382,-0.17904 -0.976563,-0.53711 -0.162777,-0.35807 -0.309261,-0.76497 -0.439453,-1.2207 -0.130225,-0.42318 -0.276709,-0.8138 -0.439453,-1.17188 -0.162777,-0.35807 -0.488297,-0.53711 -0.976563,-0.53711 -0.260431,0 -0.47202,0.0977 -0.634765,0.29297 -0.162775,0.19531 -0.276707,0.39063 -0.341797,0.58594 l 0.04883,0 c 0.09764,0.0977 0.195298,0.24414 0.292969,0.43945 0.130193,0.22787 0.244126,0.47201 0.341797,0.73242 0.09764,0.26042 0.179021,0.50456 0.24414,0.73243 0.09764,0.26041 0.162745,0.45572 0.195313,0.58593 l -0.878907,-0.0488 c -0.455743,-0.0326 -0.895195,0 -1.318359,0.0977 -0.42319,0.0977 -0.846366,0.19531 -1.269531,0.29297 -0.390637,0.13021 -0.797537,0.24414 -1.220703,0.3418 -0.423188,0.0976 -0.846364,0.1302 -1.269532,0.0976 -0.423186,0 -0.81381,-0.0651 -1.171875,-0.19531 -0.325528,-0.0977 -0.667325,-0.22787 -1.02539,-0.39062 -0.553392,-0.26042 -1.123053,-0.40691 -1.708985,-0.43946 -0.585942,-0.0326 -1.123051,-0.0977 -1.611328,-0.19531 -0.488284,-0.0977 -0.895185,-0.32552 -1.220703,-0.68359 -0.292971,-0.35808 -0.439455,-0.97657 -0.439453,-1.85547 -2e-6,-0.52083 0.09765,-1.05794 0.292969,-1.61133 0.19531,-0.55338 0.472002,-1.04166 0.830078,-1.46484 0.358069,-0.45573 0.781246,-0.8138 1.269531,-1.07422 0.488276,-0.29297 1.009109,-0.43945 1.5625,-0.43946 0.390619,10e-6 0.764967,0.0977 1.123047,0.29297 0.358065,0.16277 0.732414,0.24415 1.123047,0.24414 0.325512,10e-6 0.585929,-0.0976 0.78125,-0.29297 0.227855,-0.1953 0.423168,-0.40689 0.585937,-0.63476 0.195303,-0.26041 0.390615,-0.48828 0.585938,-0.6836 0.227854,-0.22785 0.504546,-0.37434 0.830078,-0.43945 0.03254,-1.72525 0.179025,-3.41796 0.439453,-5.07812 0.260405,-1.6927 0.390613,-3.40168 0.390625,-5.12696 -1.2e-5,-1.69269 -0.162772,-3.35284 -0.488281,-4.98047 -0.29298,-1.66013 -0.439464,-3.33656 -0.439453,-5.02929 -1.1e-5,-1.04164 0.130197,-2.05075 0.390625,-3.02735 0.292957,-0.97653 0.439441,-1.98564 0.439453,-3.02734 -1.2e-5,-0.55335 -0.13022,-1.07418 -0.390625,-1.5625 -0.227876,-0.5208 -0.341808,-1.05791 -0.341797,-1.61133 -1.1e-5,-0.42314 0.113921,-0.74866 0.341797,-0.97656 0.227853,-0.22783 0.374337,-0.5208 0.439453,-0.87891 l -0.146484,0 c -0.423189,4e-5 -0.634777,-0.22782 -0.634766,-0.68359 -1.1e-5,-0.45569 0.146473,-0.68355 0.439453,-0.68359 0.09764,4e-5 0.227853,0.0489 0.390625,0.14648 -1.2e-5,-0.26038 -0.08139,-0.52079 -0.24414,-0.78125 -0.13022,-0.26038 -0.292981,-0.52079 -0.488282,-0.78125 -0.162771,-0.26037 -0.325531,-0.52079 -0.488281,-0.78125 -0.162771,-0.29293 -0.244151,-0.58589 -0.244141,-0.87891 0.358063,-0.68355 0.585927,-1.28576 0.683594,-1.80664 0.130197,-0.52078 0.195301,-1.04162 0.195313,-1.5625 -1.2e-5,-0.45568 -0.03256,-0.91141 -0.09766,-1.36718 -0.03256,-0.48824 -0.04884,-1.0579 -0.04883,-1.70899 -1.1e-5,-0.71609 0.146473,-1.39969 0.439453,-2.05078 0.292957,-0.65099 0.439441,-1.33458 0.439454,-2.05078 -1.3e-5,-0.42312 -0.09767,-0.71609 -0.292969,-0.87891 -0.195324,-0.1627 -0.439465,-0.24408 -0.732422,-0.24414 -0.162771,6e-5 -0.37436,0.0326 -0.634766,0.0977 -1e-5,-0.42312 -0.03256,-0.99278 -0.09766,-1.70899 -0.06511,-0.74864 -0.195323,-1.46478 -0.390625,-2.14843 -0.195322,-0.68354 -0.488291,-1.26948 -0.878906,-1.75782 -0.358082,-0.52077 -0.846363,-0.78118 -1.464844,-0.78125 -0.390632,7e-5 -0.781257,0.0326 -1.171875,0.0977 -0.358079,0.0326 -0.732427,0.0489 -1.123047,0.0488 -0.618494,6e-5 -1.220707,-0.1627 -1.80664,-0.48828 -0.553389,-0.32546 -1.04167,-0.74864 -1.464844,-1.26953 -0.423179,-0.52077 -0.764975,-1.09044 -1.025391,-1.70899 -0.260417,-0.61842 -0.390625,-1.22064 -0.390625,-1.80664 0,-0.65097 0.195312,-1.05787 0.585938,-1.2207 0.390623,-0.1627 0.830076,-0.24408 1.318359,-0.24414 0.260414,6e-5 0.504554,0.0163 0.732422,0.0488 0.227861,6e-5 0.455725,6e-5 0.683594,0 0.358068,6e-5 0.732417,-0.0325 1.123047,-0.0977 0.390619,-0.0976 0.71614,-0.27663 0.976562,-0.53711 1.009108,-0.065 2.001945,-0.14642 2.978516,-0.24414 0.976552,-0.0976 1.96939,-0.14642 2.978515,-0.14649 0.553373,7e-5 1.041654,0.13028 1.464844,0.39063 0.423163,0.26048 0.830064,0.56973 1.220703,0.92773 0.423162,0.32559 0.846339,0.63484 1.269531,0.92774 0.423161,0.29303 0.895166,0.48835 1.416016,0.58594 -1.7e-5,0.71621 -0.06512,1.41608 -0.195312,2.09961 -0.09767,0.68365 -0.146502,1.38352 -0.146485,2.0996 -1.7e-5,0.68366 0.130191,1.3347 0.390625,1.95313 0.292951,0.586 0.439435,1.20449 0.439453,1.85547 -1.8e-5,0.19537 -0.06512,0.3093 -0.195312,0.3418 -0.130226,5e-5 -0.27671,0.0163 -0.439453,0.0488 -0.130226,0.0326 -0.260434,0.0977 -0.390625,0.19532 -0.09767,0.0977 -0.146501,0.32557 -0.146485,0.68359 -1.6e-5,0.29302 0.04881,0.56972 0.146485,0.83008 0.130191,0.26047 0.260399,0.52089 0.390625,0.78125 0.130191,0.22792 0.244123,0.47206 0.341797,0.73242 0.13019,0.26047 0.195294,0.53716 0.195312,0.83008 -1.8e-5,0.52088 -0.09767,1.00916 -0.292969,1.46484 -0.162777,0.45578 -0.244158,0.94406 -0.24414,1.46485 -1.8e-5,0.42322 0.04881,1.09054 0.146484,2.00195 0.09764,0.9115 0.260399,1.83924 0.488281,2.7832 0.227847,0.9115 0.520815,1.72531 0.878907,2.44141 0.358053,0.68363 0.797506,1.02543 1.318359,1.02539 0.683573,4e-5 1.334614,-0.16272 1.953125,-0.48828 0.618467,-0.32548 1.204404,-0.71611 1.757812,-1.17188 0.585914,-0.48823 1.139298,-0.99279 1.660157,-1.51367 0.520807,-0.55334 1.009088,-1.04162 1.464843,-1.46484 0.292942,-0.26037 0.862603,-0.52079 1.708985,-0.78125 0.846325,-0.26037 1.757782,-0.48824 2.734375,-0.6836 1.009082,-0.22781 1.969368,-0.40685 2.880859,-0.53711 0.943975,-0.13016 1.627569,-0.19526 2.050781,-0.19531 1.074182,5e-5 1.839155,0.0651 2.294922,0.19531 0.488243,0.13026 0.895143,0.32557 1.220703,0.58594 0.325481,0.22791 0.651002,0.50461 0.976563,0.83008 0.32548,0.32557 0.878865,0.68364 1.660156,1.07422 0.325478,0.1628 0.634723,0.27674 0.927735,0.34179 0.325477,0.0326 0.618445,0.0814 0.878906,0.14649 0.292924,0.0326 0.569617,0.13025 0.830078,0.29297 0.292923,0.13025 0.569616,0.35812 0.830078,0.68359 0.423131,0.55343 0.943964,1.15564 1.5625,1.80664 0.650994,0.61853 1.253207,1.28585 1.806641,2.00196 0.553335,0.68363 1.02534,1.39977 1.416015,2.14843 0.423126,0.74874 0.634715,1.49744 0.634766,2.2461 -5.1e-5,0.48831 -0.09771,0.97659 -0.292969,1.46484 -0.162811,0.48832 -0.244191,0.9766 -0.24414,1.46484 -5.1e-5,0.35811 0.08133,0.68363 0.24414,0.97657 0.162709,0.26045 0.24409,0.56969 0.244141,0.92773 -5.1e-5,0.39066 -0.01633,0.87894 -0.04883,1.46484 -0.0326,0.58597 -0.09771,1.20446 -0.195313,1.85547 -0.09771,0.61852 -0.227915,1.22073 -0.390625,1.80664 -0.130259,0.55342 -0.309295,0.97659 -0.537109,1.26954 0.488231,0.81382 0.813751,1.67645 0.976562,2.58789 0.16271,0.91148 0.24409,1.82293 0.244141,2.73437 -5.1e-5,1.13934 -0.06516,2.27866 -0.195313,3.41797 -0.09771,1.10679 -0.146535,2.22983 -0.146484,3.36914 -5.1e-5,1.52996 0.227813,2.71811 0.683594,3.56445 0.455677,0.81381 1.009062,1.44858 1.660156,1.9043 0.68354,0.42318 1.415961,0.73243 2.197266,0.92773 0.813745,0.19532 1.546167,0.43946 2.197265,0.73243 0.683536,0.26042 1.253197,0.65104 1.708985,1.17187 0.455669,0.48829 0.683533,1.25326 0.683593,2.29492"
         style="font-size:100px;font-variant:normal;font-stretch:normal;font-family:Special Elite;-inkscape-font-specification:Special Elite"
         id="path3144-5" />
      <path
         inkscape:connector-curvature="0"
         d="m 34.473541,467.41461 c -5.6e-5,0.5534 -0.09771,1.07423 -0.292968,1.5625 -0.195369,0.48829 -0.374405,0.99285 -0.53711,1.51367 -0.130263,0.45574 -0.227919,0.83009 -0.292969,1.12305 -0.03261,0.29297 -0.09771,0.55339 -0.195312,0.78125 -0.09771,0.19532 -0.260471,0.39063 -0.488281,0.58594 -0.195367,0.16276 -0.520887,0.35807 -0.976563,0.58594 -0.976615,0.52083 -2.01828,1.05794 -3.125,1.61132 -1.074268,0.52084 -2.164761,0.78125 -3.271484,0.78125 -0.944057,0 -1.839238,-0.21158 -2.685547,-0.63476 -0.813846,-0.45573 -1.578819,-0.94401 -2.294922,-1.46485 -0.683635,-0.55338 -1.3184,-1.05794 -1.904297,-1.51367 -0.553425,-0.45572 -1.025429,-0.68359 -1.416015,-0.68359 -0.423216,0 -0.797564,0.11394 -1.123047,0.3418 -0.293006,0.22786 -0.602251,0.472 -0.927735,0.73242 -0.293005,0.26042 -0.634801,0.50456 -1.02539,0.73242 -0.358108,0.22787 -0.813837,0.3418 -1.367188,0.3418 -0.455763,0 -0.927767,0.0814 -1.416015,0.24414 -0.488314,0.16276 -0.976595,0.35807 -1.4648442,0.58593 -0.4883121,0.19532 -0.9928688,0.40691 -1.5136719,0.63477 -0.4883105,0.19531 -0.9440392,0.35807 -1.3671875,0.48828 -1.4648707,0.39063 -2.945989,0.61849 -4.4433594,0.68359 -1.4648662,0.0651 -2.94598451,0.0977 -4.4433594,0.0977 -0.3906441,0 -0.992857,-0.0163 -1.8066406,-0.0488 -0.8138189,0 -1.6438962,-0.0814 -2.4902344,-0.24414 -0.8138164,-0.13021 -1.5462376,-0.35807 -2.1972656,-0.68359 -0.6185019,-0.32552 -0.9277464,-0.78125 -0.9277344,-1.36719 -1.2e-5,-0.13021 0.016264,-0.24414 0.048828,-0.3418 -0.2278765,0.26042 -0.4882929,0.47201 -0.7812496,0.63477 -0.29298,0.16276 -0.618501,0.24414 -0.976563,0.24414 -0.520843,0 -1.155608,-0.35807 -1.904297,-1.07422 -0.748705,-0.71614 -1.46485,-1.54622 -2.148437,-2.49023 -0.683599,-0.94401 -1.269536,-1.87174 -1.757813,-2.78321 -0.488285,-0.944 -0.732425,-1.64387 -0.732421,-2.09961 -4e-6,-0.35806 0.09765,-0.68358 0.292968,-0.97656 0.227861,-0.29296 0.341793,-0.61848 0.341797,-0.97656 -4e-6,-0.45572 -0.06511,-0.87889 -0.195312,-1.26953 -0.09766,-0.42317 -0.146489,-0.86262 -0.146485,-1.31836 -4e-6,-0.58592 0.113928,-1.20441 0.341797,-1.85547 0.22786,-0.68358 0.504552,-1.35089 0.830078,-2.00195 0.325515,-0.68358 0.667312,-1.33462 1.025391,-1.95313 0.358066,-0.65102 0.683587,-1.25323 0.976562,-1.80664 0.325514,-0.65102 0.781242,-1.17185 1.367188,-1.5625 0.585928,-0.3906 1.204417,-0.7324 1.855469,-1.02539 0.65103,-0.29294 1.302071,-0.58591 1.9531244,-0.87891 0.6510286,-0.29294 1.2206895,-0.68356 1.7089844,-1.17187 0.4882666,0.55341 1.1230316,0.8301 1.9042969,0.83008 0.8137852,2e-5 1.6113104,-0.11391 2.3925781,-0.3418 0.7812308,-0.26039 1.578756,-0.3906 2.39257813,-0.39062 0.65102017,2e-5 1.26950914,0.0651 1.85546877,0.19531 0.6184662,0.13023 1.2532312,0.19534 1.9042969,0.19531 0.7161205,3e-5 1.2369533,-0.0814 1.5625,-0.24414 0.3580463,-0.19529 0.797499,-0.52081 1.3183593,-0.97656 0.5208054,-0.4557 1.1718464,-0.7975 1.953125,-1.02539 0.8137719,-0.26039 1.6438492,-0.4557 2.4902351,-0.58594 0.878873,-0.16273 1.741502,-0.32549 2.58789,-0.48828 0.878871,-0.16273 1.66012,-0.3906 2.34375,-0.6836 0.683556,-0.32549 1.236941,-0.74866 1.660156,-1.26953 0.423139,-0.55335 0.634727,-1.30205 0.634766,-2.24609 -3.9e-5,-1.04163 -0.309284,-2.13213 -0.927734,-3.27148 -0.585976,-1.17184 -1.350949,-2.22978 -2.294922,-3.17383 -0.944046,-0.97652 -1.985711,-1.77405 -3.125,-2.39258 -1.139355,-0.61845 -2.2298487,-0.92769 -3.2714848,-0.92774 -0.1302378,5e-5 -0.260446,0.0163 -0.390625,0.0488 -0.1302374,0.0326 -0.2441695,0.0489 -0.3417969,0.0488 -0.781278,0.13025 -1.6601834,0.22791 -2.6367187,0.29297 -0.9765877,0.0326 -1.8880452,0.17908 -2.734375,0.43945 -0.8463768,0.22791 -1.56252192,0.63481 -2.14843754,1.22071 -0.5859582,0.55342 -0.87892666,1.3835 -0.87890626,2.49023 -2.04e-5,0.65108 0.048808,1.30212 0.1464844,1.95313 0.13018763,0.61852 0.19529173,1.25329 0.19531248,1.90429 -2.075e-5,0.9766 -0.24416108,1.7904 -0.73242188,2.44141 -0.4557487,0.65107 -1.0579617,1.1719 -1.8066406,1.5625 -0.7161633,0.39065 -1.5136886,0.66735 -2.3925781,0.83008 -0.8789212,0.13024 -1.7252746,0.19534 -2.5390625,0.19531 -0.9765748,3e-5 -1.8229276,-0.13018 -2.5390626,-0.39063 -0.716156,-0.26038 -1.302093,-0.86259 -1.757812,-1.80664 -0.358082,-0.68356 -0.748706,-1.41598 -1.171875,-2.19726 -0.390633,-0.81377 -0.585945,-1.62757 -0.585938,-2.44141 -7e-6,-0.87887 0.146477,-1.69267 0.439453,-2.4414 0.325513,-0.78121 0.683586,-1.52991 1.074219,-2.2461 0.390616,-0.74865 0.764965,-1.48108 1.123047,-2.19726 0.390615,-0.74866 0.667307,-1.54618 0.830078,-2.39258 0.227854,-0.13016 0.537098,-0.26037 0.9277343,-0.39063 0.423165,-0.13016 0.8626177,-0.26037 1.3183594,-0.39062 0.4882678,-0.13016 0.9439965,-0.2441 1.3671875,-0.3418 0.4557144,-0.13016 0.830063,-0.24409 1.1230469,-0.3418 0.7812337,-0.22781 1.5299309,-0.48823 2.2460937,-0.78125 0.7486795,-0.32547 1.4973767,-0.61844 2.2460938,-0.8789 0.78122926,-0.26037 1.54620245,-0.48823 2.29492183,-0.6836 0.78122697,-0.19526 1.57875227,-0.30919 2.39257817,-0.34179 l 1.5136718,-0.0488 c 1.3997121,5e-5 2.8320023,0.13026 4.296875,0.39062 1.4648116,0.22792 2.8971026,0.60227 4.2968756,1.12305 1.399703,0.52088 2.718061,1.17192 3.955078,1.95313 1.269491,0.74874 2.392537,1.64392 3.36914,2.68554 0.716103,0.7813 1.30204,1.70903 1.757813,2.78321 0.488237,1.0417 0.862585,2.14847 1.123047,3.32031 0.292923,1.17191 0.488236,2.36006 0.585937,3.56445 0.130163,1.17191 0.195267,2.2624 0.195313,3.27149 -4.6e-5,1.36721 -0.04887,2.71812 -0.146485,4.05273 -0.06515,1.30211 -0.0977,2.63674 -0.09766,4.00391 -4.5e-5,1.3021 0.06506,2.60418 0.195313,3.90625 0.162714,1.26955 0.341751,2.55535 0.537109,3.85742 0.195266,1.26954 0.358026,2.55535 0.488281,3.85742 0.162714,1.26954 0.244094,2.53907 0.244141,3.80859 0.06506,0.78126 0.162713,1.26954 0.292969,1.46485 0.162713,0.16276 0.325473,0.24414 0.488281,0.24414 0.716097,0 1.285758,-0.21158 1.708984,-0.63477 0.45568,-0.45572 0.86258,-0.944 1.220703,-1.46484 0.358022,-0.55338 0.748647,-1.05793 1.171875,-1.51367 0.423125,-0.45572 0.960234,-0.68359 1.611329,-0.6836 0.292915,1e-5 0.585883,0.0163 0.878906,0.0488 0.325466,0.0326 0.618434,0.11394 0.878906,0.24414 0.260361,0.0977 0.47195,0.26043 0.634766,0.48828 0.162704,0.19533 0.244084,0.47202 0.24414,0.83008 m -16.064453,-12.1582 c -4e-5,-0.19529 -0.01632,-0.53709 -0.04883,-1.02539 -4e-5,-0.48826 -0.03259,-0.97654 -0.09766,-1.46485 -0.06514,-0.52081 -0.179076,-0.97653 -0.341797,-1.36718 -0.130248,-0.3906 -0.341836,-0.58592 -0.634766,-0.58594 -0.06514,2e-5 -0.146523,0.0326 -0.24414,0.0977 -0.09769,0.0326 -0.179075,0.0489 -0.244141,0.0488 -1.237016,0.68362 -2.294958,1.25328 -3.173828,1.70899 -0.878941,0.4232 -1.757846,0.78127 -2.636719,1.07422 -0.846386,0.26044 -1.7578434,0.43947 -2.7343751,0.53711 -0.9765913,0.0977 -2.1972932,0.1465 -3.6621093,0.14648 -0.1953385,2e-5 -0.7324474,0.0814 -1.6113282,0.24414 -0.8789299,0.16278 -1.8392154,0.3581 -2.88085934,0.58594 -1.0416873,0.19533 -2.01824886,0.40692 -2.92968746,0.63476 -0.9114762,0.19534 -1.4811371,0.32554 -1.7089844,0.39063 -0.4231937,0.16278 -0.7324382,0.32554 -0.9277344,0.48828 -0.1627764,0.16278 -0.2929846,0.34182 -0.390625,0.53711 -0.097672,0.19533 -0.195328,0.40692 -0.2929687,0.63477 -0.097672,0.19533 -0.2767079,0.40691 -0.5371094,0.63476 -0.3255354,0.26043 -0.683608,0.47202 -1.0742188,0.63477 -0.3580863,0.16277 -0.6998829,0.40691 -1.0253906,0.73242 -0.4882935,0.4883 -0.9440223,1.13934 -1.3671873,1.95312 -0.423188,0.78127 -0.634776,1.52996 -0.634766,2.2461 -10e-6,0.87891 0.227854,1.66016 0.683594,2.34375 0.4557172,0.6836 1.0579301,1.26954 1.8066406,1.75781 0.7486838,0.48829 1.5950372,0.91147 2.5390625,1.26953 0.9439936,0.35808 1.8880031,0.63477 2.8320312,0.83008 0.9765429,0.19532 1.9042763,0.3418 2.78320313,0.43945 0.91143599,0.0977 1.69268517,0.14649 2.34374997,0.14649 0.7812255,0 1.7089589,-0.0488 2.7832032,-0.14649 1.0741911,-0.1302 2.1484087,-0.30924 3.2226562,-0.53711 1.0741879,-0.26041 2.0833012,-0.6022 3.0273442,-1.02539 0.943976,-0.42317 1.692674,-0.96028 2.246094,-1.61133 0.227829,-0.2604 0.390589,-0.48827 0.488281,-0.68359 0.09762,-0.22785 0.195277,-0.43944 0.292969,-0.63477 0.130172,-0.22785 0.26038,-0.45571 0.390625,-0.68359 0.162724,-0.22785 0.406864,-0.47199 0.732421,-0.73242 0.748661,-0.61848 1.318321,-1.30207 1.708985,-2.05078 0.423138,-0.74869 0.732382,-1.52994 0.927734,-2.34375 0.195273,-0.81379 0.309205,-1.66014 0.341797,-2.53906 0.03251,-0.87889 0.04879,-1.77407 0.04883,-2.68555"
         style="font-size:100px;font-variant:normal;font-stretch:normal;font-family:Special Elite;-inkscape-font-specification:Special Elite"
         id="path3146-2" />
      <path
         d="m 69.434463,480.84236 c -3.5e-5,1.72525 -0.260451,3.33658 -0.78125,4.83398 -0.488315,1.52994 -1.220736,2.8483 -2.197266,3.95508 -0.976593,1.13931 -2.164743,2.03449 -3.564453,2.68555 -1.399766,0.68357 -2.994816,1.02537 -4.785156,1.02539 -0.26044,-2e-5 -0.439476,0.0814 -0.53711,0.24414 -0.09768,0.16274 -0.179058,0.35805 -0.24414,0.58593 -0.03258,0.22785 -0.0814,0.45571 -0.146485,0.6836 -0.03257,0.2604 -0.113954,0.45571 -0.24414,0.58594 -0.195334,0.26039 -0.439475,0.40688 -0.732422,0.43945 -0.260438,0.0651 -0.553406,0.11391 -0.878906,0.14648 -0.325541,0.0651 -0.667338,0.16274 -1.025391,0.29297 -0.32554,0.13019 -0.683612,0.39061 -1.074219,0.78125 -0.423195,0.45571 -0.781267,0.83006 -1.074218,1.12305 -0.260434,0.3255 -0.537126,0.58591 -0.830079,0.78125 -0.292984,0.19529 -0.651057,0.3255 -1.074218,0.39062 -0.39064,0.0976 -0.927749,0.14646 -1.611328,0.14649 -1.399752,-3e-5 -2.490246,-0.0814 -3.271485,-0.24414 -0.748707,-0.16279 -1.399748,-0.4232 -1.953125,-0.78125 -0.520841,-0.3581 -1.041674,-0.8301 -1.5625,-1.41602 -0.520839,-0.58596 -1.236985,-1.31838 -2.148437,-2.19726 -0.227869,-0.22789 -0.520838,-0.40692 -0.878907,-0.53711 -0.325524,-0.13023 -0.651044,-0.27671 -0.976562,-0.43946 -0.292971,-0.13022 -0.553388,-0.30926 -0.78125,-0.53711 -0.195314,-0.22788 -0.292971,-0.53712 -0.292969,-0.92773 -2e-6,-0.22788 -0.146486,-0.71616 -0.439453,-1.46484 -0.29297,-0.71616 -0.61849,-1.54624 -0.976562,-2.49024 -0.358073,-0.94402 -0.683594,-1.92058 -0.976563,-2.92969 -0.292968,-0.97657 -0.439452,-1.85547 -0.439453,-2.63671 10e-7,-0.74871 0.113933,-1.61134 0.341797,-2.5879 0.195313,-0.94401 0.455729,-1.74153 0.78125,-2.39257 0.130208,-0.29297 0.309244,-0.52084 0.537109,-0.6836 0.260416,-0.16276 0.520832,-0.32552 0.78125,-0.48828 0.292967,-0.13021 0.56966,-0.26042 0.830078,-0.39062 0.292967,-0.13021 0.553383,-0.30925 0.78125,-0.53711 0.325518,-0.32552 0.618486,-0.53711 0.878907,-0.63477 0.260412,-0.0976 0.618485,-0.14648 1.074218,-0.14648 1.627598,0 2.913404,0.19531 3.857422,0.58593 0.944001,0.39063 1.72525,0.84636 2.34375,1.36719 0.65103,0.55339 1.236967,1.10677 1.757813,1.66016 0.52082,0.58593 1.204413,1.07421 2.050781,1.46484 -0.09767,0.26041 -0.146499,0.58594 -0.146484,0.97656 -1.5e-5,0.26042 -1.5e-5,0.50456 0,0.73243 0.03254,0.22786 0.06509,0.42317 0.09766,0.58593 l 0.04883,0.48829 c -0.09767,0.58593 -0.276707,1.15559 -0.537109,1.70898 -0.227879,0.55338 -0.455744,1.10676 -0.683594,1.66016 -0.227878,0.58592 -0.439467,1.15558 -0.634766,1.70898 -0.162773,0.58593 -0.244153,1.18814 -0.24414,1.80664 -1.3e-5,0.84634 0.244127,1.56249 0.732421,2.14844 l 0.634766,0.0488 0.390625,0 c 0.651026,-2e-5 1.318344,-0.13023 2.001953,-0.39063 0.716129,-0.26043 1.36717,-0.6185 1.953125,-1.07422 0.585919,-0.45574 1.057923,-0.99285 1.416016,-1.61133 0.390604,-0.58594 0.585917,-1.23699 0.585937,-1.95312 -2e-5,-0.26043 -0.0163,-0.45574 -0.04883,-0.58594 l 0.585938,-0.0488 c 0.455707,-1e-5 0.89516,0.0651 1.318359,0.19532 0.423154,0.13019 0.862607,0.1953 1.318359,0.19531 0.292945,-1e-5 0.52081,-0.0814 0.683594,-0.24414 0.162736,-0.16277 0.292944,-0.35808 0.390625,-0.58594 0.09763,-0.22787 0.162736,-0.47201 0.195313,-0.73242 0.06508,-0.26043 0.113907,-0.50457 0.146484,-0.73242 0.130183,-0.91147 0.292943,-1.79037 0.488281,-2.63672 0.195287,-0.84636 0.390599,-1.69271 0.585938,-2.53906 0.195286,-0.81381 0.358046,-1.66016 0.488281,-2.53907 0.130182,-0.8789 0.195286,-1.79036 0.195313,-2.73437 -2.7e-5,-1.17187 -0.146512,-2.32747 -0.439454,-3.4668 -0.260442,-1.13931 -0.390651,-2.29491 -0.390625,-3.4668 -2.6e-5,-0.45571 0.0488,-0.91144 0.146485,-1.36718 0.130182,-0.45572 0.195286,-0.91145 0.195312,-1.36719 -2.6e-5,-0.944 -0.179062,-1.83918 -0.537109,-2.68555 -0.325546,-0.87889 -0.488307,-1.79035 -0.488281,-2.73437 -2.6e-5,-0.94399 0.09763,-1.87173 0.292968,-2.78321 0.195287,-0.91143 0.292943,-1.83917 0.292969,-2.7832 -2.6e-5,-1.49737 -0.113958,-2.97849 -0.341797,-4.44336 -0.22789,-1.49736 -0.341822,-3.01104 -0.341797,-4.54101 -2.5e-5,-0.55336 0.01625,-1.09047 0.04883,-1.61133 0.03253,-0.5208 0.0488,-1.05791 0.04883,-1.61133 -2.6e-5,-1.04163 -0.195338,-1.87171 -0.585938,-2.49023 -0.390649,-0.65101 -0.911482,-1.13929 -1.5625,-1.46485 -0.618512,-0.35803 -1.334657,-0.5859 -2.148437,-0.68359 -0.781271,-0.13017 -1.595072,-0.19527 -2.441407,-0.19531 -0.748715,4e-5 -1.481137,0.0163 -2.197265,0.0488 -0.68361,0.0326 -1.334651,0.0489 -1.953125,0.0488 -0.618504,4e-5 -1.367201,-0.0325 -2.246094,-0.0976 -0.878918,-0.0976 -1.725271,-0.27666 -2.539062,-0.53711 -0.813811,-0.29293 -1.513681,-0.68356 -2.09961,-1.17188 -0.553392,-0.52079 -0.830085,-1.20438 -0.830078,-2.05078 -7e-6,-0.7161 0.17903,-1.28576 0.537109,-1.70898 0.390618,-0.45569 0.862622,-0.79748 1.416016,-1.02539 0.553376,-0.22782 1.139313,-0.37431 1.757813,-0.43946 0.618478,-0.0651 1.188139,-0.0976 1.708984,-0.0976 1.529934,4e-5 3.027328,-0.0325 4.492187,-0.0977 1.464826,-0.0651 2.96222,-0.0976 4.492188,-0.0977 0.260395,5e-5 0.537088,0.0163 0.830078,0.0488 0.325499,0.0326 0.520811,0.0977 0.585938,0.19531 l 0,-0.68359 c 0.488258,-0.19526 0.976538,-0.3092 1.464843,-0.3418 0.520809,-0.0325 1.041642,-0.0488 1.5625,-0.0488 0.358047,4e-5 0.813776,0.0326 1.367188,0.0976 0.58591,0.0326 1.155571,0.13026 1.708984,0.29297 0.553356,0.13026 1.025361,0.34184 1.416016,0.63477 0.423146,0.26046 0.634735,0.63481 0.634765,1.12304 -3e-5,0.19536 -0.04886,0.39067 -0.146484,0.58594 -0.09769,0.16281 -0.211619,0.30929 -0.341797,0.43945 l 3.466797,2.09961 c 0.03252,0.45577 0.04879,0.9115 0.04883,1.36719 -3.4e-5,0.42322 -3.4e-5,0.86267 0,1.31836 -3.4e-5,1.56254 -0.03259,3.12504 -0.09766,4.6875 -0.06514,1.56253 -0.09769,3.12503 -0.09766,4.6875 -3.4e-5,0.65107 -3.4e-5,1.30211 0,1.95312 0.03252,0.65107 0.08135,1.30212 0.146484,1.95313 0.06507,0.65107 0.195279,1.30211 0.390625,1.95312 0.195278,0.65107 0.292934,1.30211 0.292969,1.95313 -3.5e-5,0.39065 -0.08141,0.74872 -0.244141,1.07422 -0.130242,0.32554 -0.293002,0.65106 -0.488281,0.97656 -0.162794,0.29299 -0.325554,0.58596 -0.488281,0.87891 -0.130242,0.29299 -0.195346,0.58595 -0.195313,0.8789 -3.3e-5,0.3581 0.162727,0.53713 0.488281,0.53711 0.06507,1.36721 0.113899,2.71812 0.146485,4.05274 0.03252,1.33465 0.04879,2.68556 0.04883,4.05273 -3.4e-5,1.13933 -0.04886,2.19728 -0.146484,3.17383 -0.06514,0.94402 -0.244174,1.96941 -0.53711,3.07617 -3.3e-5,0.0651 -0.01631,0.13021 -0.04883,0.19531 -3.3e-5,0.0651 -3.3e-5,0.13022 0,0.19532 -3.3e-5,0.71615 0.06507,1.43229 0.195313,2.14843 0.162727,0.6836 0.341763,1.36719 0.537109,2.05079 0.195279,0.68359 0.358039,1.36718 0.488281,2.05078 0.162726,0.68359 0.244106,1.38346 0.244141,2.09961"
         style="font-size:100px;font-variant:normal;font-stretch:normal;font-family:Special Elite;-inkscape-font-specification:Special Elite"
         id="path3148-0"
         inkscape:connector-curvature="0"
         sodipodi:nodetypes="ccccccccccccccccccccccccccscscccccccscccccccccccccccccccccccccccccccccccccccccccccccccccccccccccccccccccccccccccccccccccccccccccccc" />
      <path
         inkscape:connector-curvature="0"
         d="m 127.19815,465.90094 c -5e-5,0.32553 -0.13026,0.55339 -0.39062,0.68359 -0.22792,0.13022 -0.45578,0.26043 -0.6836,0.39063 -0.35812,0.19532 -0.65109,0.42318 -0.8789,0.68359 -0.22792,0.26043 -0.43951,0.5534 -0.63477,0.87891 -0.19536,0.29297 -0.3744,0.6185 -0.53711,0.97656 -0.16281,0.32553 -0.34184,0.63477 -0.53711,0.92774 -0.45577,0.68359 -1.09054,1.1556 -1.9043,1.41601 -0.78129,0.26042 -1.56254,0.50456 -2.34375,0.73242 -0.78129,0.22787 -1.49743,0.55339 -2.14843,0.97657 -0.61853,0.39062 -1.00916,1.07422 -1.17188,2.05078 l -0.24414,0 c -0.74873,0 -1.4486,0.13021 -2.09961,0.39062 -0.61852,0.26042 -1.25329,0.53711 -1.90429,0.83008 -0.61853,0.32552 -1.25329,0.61849 -1.9043,0.87891 -0.65108,0.26041 -1.33467,0.39062 -2.05078,0.39062 -0.39066,0 -0.76501,-0.0651 -1.12305,-0.19531 -0.32555,-0.13021 -0.66735,-0.2767 -1.02539,-0.43945 -0.32555,-0.16277 -0.66735,-0.30925 -1.02539,-0.43946 -0.32555,-0.13021 -0.68362,-0.19531 -1.07422,-0.19531 -0.52086,0 -1.02542,0.0326 -1.51367,0.0977 -0.48831,0.0651 -0.97659,0.0976 -1.46485,0.0976 -0.35809,0 -0.781269,-0.0488 -1.269527,-0.14648 -0.488303,-0.0651 -0.944032,-0.19532 -1.367187,-0.39063 -0.423198,-0.19531 -0.781271,-0.43945 -1.074219,-0.73242 -0.292989,-0.32552 -0.439473,-0.71614 -0.439453,-1.17187 -2e-5,-0.16276 0.01626,-0.29297 0.04883,-0.39063 -0.16278,0.16276 -0.341816,0.2767 -0.537109,0.3418 -0.195332,0.0326 -0.390644,0.0488 -0.585938,0.0488 -0.97658,0 -1.888038,-0.21159 -2.734375,-0.63477 -0.813817,-0.45573 -1.595066,-0.99283 -2.34375,-1.61133 -0.716159,-0.65103 -1.399752,-1.33463 -2.050781,-2.05078 -0.618501,-0.74869 -1.23699,-1.43228 -1.855469,-2.05078 -0.748707,-0.74869 -1.334644,-1.61132 -1.757812,-2.58789 -0.390633,-0.97655 -0.862638,-1.92056 -1.416016,-2.83203 -1.17188,-1.88801 -1.888026,-3.7923 -2.148438,-5.71289 -0.26042,-1.95311 -0.390629,-3.98761 -0.390625,-6.10352 -4e-6,-0.3906 0.01627,-0.83005 0.04883,-1.31836 0.0651,-0.5208 0.179032,-0.89515 0.341796,-1.12304 0.130204,-0.16274 0.292964,-0.27667 0.488282,-0.3418 0.195307,-0.0976 0.374343,-0.17901 0.537109,-0.24414 0.195307,-0.0976 0.358067,-0.19529 0.488281,-0.29297 0.130203,-0.0976 0.195307,-0.24411 0.195313,-0.43945 -6e-6,-0.4557 -0.113938,-0.8626 -0.341797,-1.22071 -0.22787,-0.39059 -0.341802,-0.81377 -0.341797,-1.26953 -5e-6,-0.32549 0.0651,-0.60218 0.195313,-0.83008 0.162754,-0.22783 0.325514,-0.47197 0.488281,-0.73242 0.26041,-0.42314 0.488274,-1.12301 0.683594,-2.09961 0.227857,-1.00908 0.455721,-2.00191 0.683593,-2.97851 0.260409,-1.00908 0.569654,-1.88798 0.927735,-2.63672 0.390616,-0.78121 0.895173,-1.17184 1.513672,-1.17188 0.455718,4e-5 0.878895,0.0651 1.269531,0.19532 0.390613,0.13025 0.81379,0.19535 1.269531,0.19531 0.390612,4e-5 0.764961,-0.0488 1.123047,-0.14649 l 0.04883,-0.39062 c -1.4e-5,-0.39058 -0.130222,-0.63472 -0.390625,-0.73242 -0.227878,-0.0976 -0.488294,-0.16272 -0.78125,-0.19532 -0.260429,-0.0325 -0.520845,-0.0651 -0.78125,-0.0976 -0.227876,-0.0651 -0.341808,-0.2441 -0.341797,-0.53711 -1.1e-5,-0.19527 0.08137,-0.35803 0.244141,-0.48828 0.195301,-0.16272 0.406889,-0.29293 0.634765,-0.39063 0.260405,-0.13016 0.520821,-0.24409 0.78125,-0.34179 0.260404,-0.0976 0.455716,-0.19527 0.585938,-0.29297 0.325507,-0.26037 0.553371,-0.50452 0.683594,-0.73243 0.130194,-0.26037 0.244126,-0.50451 0.341797,-0.73242 0.130193,-0.22781 0.309229,-0.42313 0.537109,-0.58593 0.227849,-0.16272 0.602198,-0.3092 1.123047,-0.43946 0.455712,-0.0976 0.911441,-0.14643 1.367187,-0.14648 0.455711,-0.0325 0.91144,-0.0488 1.367188,-0.0488 0.45571,-0.0325 0.911438,-0.0651 1.367187,-0.0977 0.455709,-0.0325 0.911437,-0.11388 1.367188,-0.24414 l -0.488281,-0.48828 c 0.162739,-0.29292 0.390603,-0.52078 0.683593,-0.68359 0.292947,-0.19527 0.618467,-0.34175 0.976563,-0.43946 0.390602,-0.0976 0.764941,-0.14643 1.123041,-0.14648 0.3906,-0.0325 0.7324,-0.0488 1.02539,-0.0488 1.1393,5e-5 2.24607,0.14654 3.32031,0.43946 1.07419,0.29301 2.14841,0.4395 3.22266,0.43945 0.4557,5e-5 0.89515,-0.0488 1.31836,-0.14649 0.4557,-0.13015 0.91142,-0.19526 1.36719,-0.19531 0.68356,5e-5 1.31832,0.17909 1.90429,0.53711 0.61846,0.32557 1.20439,0.63481 1.75782,0.92774 l 0.19531,0.0488 c 0.29293,5e-5 0.53707,-0.11388 0.73242,-0.34179 0.19527,-0.22782 0.39059,-0.34175 0.58594,-0.3418 0.16272,5e-5 0.29293,0.0814 0.39062,0.24414 0.0976,0.13026 0.19528,0.26047 0.29297,0.39063 0.26038,0.29301 0.60217,0.48832 1.02539,0.58593 0.45569,0.0651 0.76493,0.22791 0.92774,0.48828 0.22782,0.39068 0.48824,0.66737 0.78125,0.83008 0.29292,0.13026 0.58589,0.22791 0.8789,0.29297 0.29293,0.0651 0.60217,0.13025 0.92774,0.19531 0.32547,0.0652 0.63472,0.21164 0.92773,0.43946 l 0,1.36718 c 0.651,0.8464 1.25321,1.49744 1.80664,1.95313 0.58589,0.42322 1.09045,0.87895 1.51367,1.36719 0.45568,0.45577 0.79748,1.0417 1.0254,1.75781 0.26036,0.68363 0.39057,1.69274 0.39062,3.02734 -5e-5,1.43233 -0.13026,2.68558 -0.39062,3.75977 -0.22792,1.07425 -0.6511,1.98571 -1.26954,2.73437 -0.58598,0.71618 -1.38351,1.26956 -2.39257,1.66016 -1.00916,0.3581 -2.26242,0.52086 -3.75977,0.48828 l -3.17383,-0.0488 c -0.26045,-0.42315 -0.6348,-1.00908 -1.12304,-1.75781 -0.48832,-0.78122 -0.9766,-1.57875 -1.46485,-2.39258 -0.48832,-0.84632 -0.92777,-1.62757 -1.31836,-2.34375 -0.35811,-0.74866 -0.53714,-1.31832 -0.53711,-1.70898 -3e-5,-0.48825 0.0325,-0.97653 0.0977,-1.46485 0.0976,-0.48824 0.14645,-0.97652 0.14648,-1.46484 -0.2279,-0.61845 -0.53714,-1.12301 -0.92773,-1.51367 -0.35811,-0.39059 -0.78128,-0.68355 -1.26953,-0.87891 -0.48832,-0.22782 -1.02543,-0.37431 -1.61133,-0.43945 -0.55342,-0.0651 -1.12308,-0.0976 -1.70898,-0.0977 -0.84639,4e-5 -1.69274,0.0651 -2.53907,0.19532 -0.81383,0.13024 -1.61135,0.34183 -2.39258,0.63476 -2e-5,-0.29293 -0.0814,-0.55334 -0.24414,-0.78125 -0.13023,-0.26037 -0.37437,-0.39058 -0.73242,-0.39062 -0.455746,4e-5 -1.00913,0.17907 -1.660149,0.53711 -0.651063,0.32556 -1.31838,0.73246 -2.001953,1.2207 -0.651062,0.48832 -1.253274,1.00915 -1.806641,1.5625 -0.553403,0.52087 -0.960304,0.9766 -1.220703,1.36719 -0.227882,0.32555 -0.537126,0.83011 -0.927735,1.51367 -0.39064,0.68363 -0.813817,1.36722 -1.269531,2.05078 -0.423191,0.68363 -0.87892,1.30211 -1.367187,1.85547 -0.455743,0.52086 -0.878919,0.79755 -1.269532,0.83008 0.09764,0.45576 0.227853,1.07424 0.390625,1.85546 0.162748,0.74873 0.309232,1.54626 0.439454,2.39258 0.130195,0.84638 0.244127,1.66018 0.341796,2.44141 0.09764,0.74872 0.146471,1.33466 0.146485,1.75781 -1.4e-5,0.74872 0.130194,1.44859 0.390625,2.09961 0.260402,0.65106 0.390611,1.35093 0.390625,2.09961 -1.4e-5,0.5534 -0.0814,1.10679 -0.244141,1.66016 -0.130222,0.5534 -0.195326,1.10678 -0.195312,1.66015 -1.4e-5,0.4883 0.06509,0.81382 0.195312,0.97657 0.162746,0.16277 0.471991,0.30925 0.927735,0.43945 0.520817,0.16277 0.87889,0.43946 1.074218,0.83008 0.227849,0.39063 0.406885,0.79753 0.53711,1.2207 0.162743,0.39064 0.34178,0.73243 0.537109,1.02539 0.227847,0.29298 0.618472,0.43946 1.171875,0.43945 l 0.244141,0 0.585937,-0.0488 c 0.390606,0.52084 0.61847,1.10677 0.683594,1.75781 0.09764,0.65105 0.341777,1.23698 0.732422,1.75781 0.227844,-0.0326 0.374328,-0.1302 0.439453,-0.29297 0.06508,-0.16275 0.130187,-0.32551 0.195312,-0.48828 0.06508,-0.16275 0.162739,-0.30924 0.292969,-0.43945 0.162739,-0.1302 0.439431,-0.19531 0.830078,-0.19532 0.358051,10e-6 0.651019,0.0977 0.878907,0.29297 0.227832,0.19532 0.439422,0.42319 0.634762,0.6836 0.19529,0.22787 0.3906,0.43946 0.58594,0.63476 0.22784,0.19532 0.50453,0.29298 0.83007,0.29297 0.55336,1e-5 1.15558,-0.0976 1.80664,-0.29297 0.68357,-0.22786 1.36716,-0.472 2.05079,-0.73242 0.71611,-0.29296 1.41598,-0.58593 2.09961,-0.87891 0.68356,-0.29296 1.30205,-0.52082 1.85546,-0.68359 1.3346,-0.39062 2.58786,-0.96028 3.75977,-1.70898 1.17184,-0.74869 2.11585,-1.74153 2.83203,-2.97852 0.35803,-0.65103 0.78121,-1.25324 1.26953,-1.80664 0.52079,-0.55337 0.92769,-1.17186 1.22071,-1.85547 0.32547,2e-5 0.65099,-0.0163 0.97656,-0.0488 0.32547,-0.0325 0.66727,-0.0488 1.02539,-0.0488 0.0976,1e-5 0.24409,1e-5 0.43945,0 0.22782,1e-5 0.45569,0.0163 0.6836,0.0488 0.22781,0.0326 0.42313,0.0814 0.58593,0.14649 0.19527,0.0651 0.29293,0.1465 0.29297,0.24414 -4e-5,0.29298 -0.11398,0.53712 -0.3418,0.73242 -0.19535,0.16278 -0.42322,0.32554 -0.68359,0.48828 -0.22791,0.13022 -0.4395,0.29299 -0.63476,0.48828 -0.19536,0.16278 -0.29302,0.40692 -0.29297,0.73242 l 0.53711,-0.0488 c 0.39058,10e-6 0.91141,0.0977 1.5625,0.29297 0.65099,0.19532 1.28576,0.47201 1.90429,0.83007 0.651,0.32554 1.20438,0.69989 1.66016,1.12305 0.48823,0.42319 0.73237,0.86264 0.73242,1.31836 m -3.51562,2.73437 c -5e-5,-0.1953 -0.0814,-0.35806 -0.24414,-0.48828 -0.13026,-0.16275 -0.29302,-0.24413 -0.48829,-0.24414 -0.22791,10e-6 -0.42322,0.1465 -0.58593,0.43946 -0.16281,0.29297 -0.24419,0.52084 -0.24414,0.68359 -5e-5,0.19532 0.11388,0.29298 0.34179,0.29297 0.22782,-0.0326 0.37431,-0.0488 0.43946,-0.0488 0.16271,1e-5 0.32547,-0.0325 0.48828,-0.0977 0.19526,-0.0976 0.29292,-0.27668 0.29297,-0.53711"
         style="font-size:100px;font-variant:normal;font-stretch:normal;font-family:Special Elite;-inkscape-font-specification:Special Elite"
         id="path3150-7" />
      <path
         inkscape:connector-curvature="0"
         d="m 191.35831,473.61578 c -6e-5,0.55339 -0.0977,1.0905 -0.29297,1.61133 -0.16282,0.48828 -0.39069,0.96029 -0.6836,1.41602 -0.74875,0.0651 -1.48117,0.11393 -2.19726,0.14648 -0.68365,0.0326 -1.3998,0.0488 -2.14844,0.0488 -0.7162,0 -1.43234,-0.0163 -2.14844,-0.0488 -0.71619,0 -1.43234,0 -2.14843,0 -1.00917,0 -2.00201,0.0977 -2.97852,0.29297 -0.94406,0.19531 -1.92062,0.29297 -2.92969,0.29297 -1.33468,0 -2.05082,-0.69987 -2.14843,-2.09961 -0.45578,0 -0.86268,0.14648 -1.22071,0.43945 -0.35811,0.26042 -0.71618,0.53711 -1.07422,0.83008 -0.35811,0.32552 -0.74873,0.61849 -1.17187,0.87891 -0.42322,0.29296 -0.9115,0.43945 -1.46484,0.43945 -0.55343,0 -1.12309,-0.16276 -1.70899,-0.48828 -0.55342,-0.32552 -0.83011,-0.8138 -0.83008,-1.46484 -3e-5,-0.22787 0.0488,-0.43946 0.14649,-0.63477 0.13017,-0.19531 0.26038,-0.35807 0.39062,-0.48828 0.16273,-0.16276 0.30921,-0.29297 0.43946,-0.39063 0.13017,-0.1302 0.19527,-0.24414 0.19531,-0.34179 -4e-5,-0.16276 -0.0651,-0.30925 -0.19531,-0.43946 -0.13025,-0.1302 -0.29301,-0.26041 -0.48829,-0.39062 -0.16279,-0.13021 -0.30928,-0.26041 -0.43945,-0.39063 -0.13024,-0.16275 -0.19535,-0.35807 -0.19531,-0.58593 -4e-5,-0.52083 0.19528,-0.89518 0.58594,-1.12305 0.39058,-0.26041 0.89514,-0.43945 1.51367,-0.53711 0.61845,-0.0976 1.28577,-0.14648 2.00195,-0.14648 0.71611,-0.0326 1.41598,-0.0651 2.09961,-0.0977 0.68355,-0.0325 1.28577,-0.11393 1.80664,-0.24414 0.52079,-0.16276 0.87886,-0.43945 1.07422,-0.83008 0.32548,-0.58593 0.58589,-1.2858 0.78125,-2.09961 0.19527,-0.81379 0.34175,-1.66014 0.43945,-2.53906 0.13017,-0.8789 0.21155,-1.74152 0.24414,-2.58789 0.0651,-0.87889 0.0976,-1.66014 0.0977,-2.34375 -5e-5,-1.43228 -0.0651,-2.84829 -0.19531,-4.24805 -0.0977,-1.39972 -0.29302,-2.79945 -0.58594,-4.19922 -0.13025,-0.65101 -0.30929,-1.28578 -0.53711,-1.90429 -0.19536,-0.61847 -0.29301,-1.25323 -0.29297,-1.9043 -4e-5,-0.42315 0.0651,-0.7975 0.19531,-1.12305 0.13017,-0.32549 0.26038,-0.61846 0.39063,-0.8789 0.16271,-0.26039 0.3092,-0.50453 0.43945,-0.73243 0.13017,-0.26038 0.19527,-0.5208 0.19531,-0.78125 -4e-5,-0.55335 -0.1628,-1.02535 -0.48828,-1.41601 -0.32556,-0.42315 -0.5697,-0.87887 -0.73242,-1.36719 -0.1628,-0.45569 -0.27673,-0.91142 -0.3418,-1.36719 -0.0326,-0.48824 -0.14652,-0.96025 -0.34179,-1.41601 -0.16281,-0.32549 -0.37439,-0.61845 -0.63477,-0.87891 -0.26046,-0.29293 -0.52087,-0.56962 -0.78125,-0.83008 -0.26046,-0.29293 -0.52087,-0.56962 -0.78125,-0.83008 -0.26046,-0.26037 -0.45577,-0.56962 -0.58594,-0.92773 -1.13936,-0.0976 -2.22985,-0.14644 -3.27148,-0.14648 -1.43233,4e-5 -2.76696,0.0977 -4.00391,0.29296 -1.20446,0.16281 -2.36005,0.47205 -3.46679,0.92774 -1.07425,0.45577 -2.09964,1.05798 -3.07617,1.80664 -0.94404,0.74874 -1.87177,1.69274 -2.78321,2.83203 -0.32554,0.39066 -0.71617,0.83011 -1.17187,1.31836 -0.45575,0.48832 -0.91148,0.99287 -1.36719,1.51367 -0.45575,0.48832 -0.87893,0.99287 -1.26953,1.51367 -0.35809,0.52087 -0.58596,1.02542 -0.6836,1.51368 -0.32554,1.30211 -0.58595,2.76695 -0.78125,4.39453 -0.16277,1.62763 -0.24415,3.12502 -0.24414,4.49218 -1e-5,0.45575 0.0488,0.91148 0.14649,1.36719 0.13019,0.45575 0.2604,0.91148 0.39062,1.36719 0.16274,0.42319 0.29295,0.86265 0.39063,1.31836 0.13019,0.42319 0.19529,0.87892 0.19531,1.36719 -2e-5,0.22788 -0.0651,0.65105 -0.19531,1.26953 -0.13023,0.58595 -0.29299,1.18816 -0.48828,1.80664 -0.19533,0.6185 -0.40692,1.17188 -0.63477,1.66015 -0.22788,0.45574 -0.45575,0.68361 -0.68359,0.6836 0.0651,0.22787 0.29295,0.53712 0.68359,0.92773 0.39061,0.35808 0.83006,0.71616 1.31836,1.07422 0.52081,0.35808 1.00909,0.66733 1.46484,0.92774 0.48826,0.26042 0.84634,0.39063 1.07422,0.39062 0.29295,10e-6 0.56964,-0.0163 0.83008,-0.0488 0.29295,-0.0651 0.56964,-0.0976 0.83008,-0.0976 0.61846,0 1.28578,0.17904 2.00195,0.53711 0.74867,0.32552 1.36716,0.69987 1.85547,1.12304 0.52081,0.39063 0.83005,0.76498 0.92774,1.12305 0.0976,0.32552 -0.19534,0.48828 -0.87891,0.48828 -0.16279,0 -0.34182,0.0163 -0.53711,0.0488 -0.16279,0 -0.32555,0 -0.48828,0 -0.32555,0 -0.55341,-0.0814 -0.68359,-0.24414 -0.13024,-0.19531 -0.24417,-0.39062 -0.3418,-0.58594 -0.0977,-0.22786 -0.19534,-0.42317 -0.29297,-0.58594 -0.0977,-0.1953 -0.27672,-0.29296 -0.53711,-0.29297 -0.16278,1e-5 -0.27672,0.0977 -0.3418,0.29297 -0.0326,0.19532 -0.0489,0.35808 -0.0488,0.48828 -3e-5,0.29298 0.13018,0.60222 0.39062,0.92774 0.26039,0.29297 0.53708,0.60222 0.83008,0.92773 0.32549,0.32553 0.61846,0.66732 0.8789,1.02539 0.26039,0.32553 0.3906,0.66732 0.39063,1.02539 -3e-5,0.16277 -0.0651,0.2767 -0.19531,0.3418 -0.13024,0.0651 -0.26045,0.0977 -0.39063,0.0977 -0.32554,0 -0.65107,-0.0488 -0.97656,-0.14649 -0.29299,-0.0976 -0.60224,-0.14648 -0.92773,-0.14648 -0.293,0 -0.56969,0.11393 -0.83008,0.3418 -0.26044,0.26041 -0.60224,0.5371 -1.02539,0.83007 -0.4232,0.29297 -0.97659,0.55339 -1.66016,0.78125 -0.68361,0.26042 -1.59507,0.39063 -2.73437,0.39063 -0.4883,0 -0.81382,-0.17904 -0.97657,-0.53711 -0.16277,-0.35807 -0.30926,-0.76497 -0.43945,-1.2207 -0.13023,-0.42318 -0.27671,-0.8138 -0.43945,-1.17188 -0.16278,-0.35807 -0.4883,-0.53711 -0.97657,-0.53711 -0.26043,0 -0.47202,0.0977 -0.63476,0.29297 -0.16278,0.19531 -0.27671,0.39063 -0.3418,0.58594 l 0.0488,0 c 0.0976,0.0977 0.1953,0.24414 0.29297,0.43945 0.13019,0.22787 0.24412,0.47201 0.3418,0.73242 0.0976,0.26042 0.17902,0.50456 0.24414,0.73243 0.0976,0.26041 0.16274,0.45572 0.19531,0.58593 l -0.87891,-0.0488 c -0.45574,-0.0326 -0.89519,0 -1.31836,0.0977 -0.42319,0.0977 -0.84636,0.19531 -1.26953,0.29297 -0.39064,0.13021 -0.79754,0.24414 -1.2207,0.3418 -0.42319,0.0976 -0.84637,0.1302 -1.26953,0.0976 -0.42319,0 -0.81381,-0.0651 -1.17188,-0.19531 -0.32553,-0.0977 -0.66732,-0.22787 -1.02539,-0.39062 -0.55339,-0.26042 -1.12305,-0.40691 -1.70898,-0.43946 -0.58595,-0.0326 -1.12305,-0.0977 -1.61133,-0.19531 -0.48829,-0.0977 -0.89519,-0.32552 -1.2207,-0.68359 -0.29298,-0.35808 -0.43946,-0.97657 -0.43946,-1.85547 0,-0.52083 0.0977,-1.05794 0.29297,-1.61133 0.19531,-0.55338 0.472,-1.04166 0.83008,-1.46484 0.35807,-0.45573 0.78125,-0.8138 1.26953,-1.07422 0.48828,-0.29297 1.00911,-0.43945 1.5625,-0.43946 0.39062,10e-6 0.76497,0.0977 1.12305,0.29297 0.35806,0.16277 0.73241,0.24415 1.12304,0.24414 0.32552,10e-6 0.58593,-0.0976 0.78125,-0.29297 0.22786,-0.1953 0.42317,-0.40689 0.58594,-0.63476 0.1953,-0.26041 0.39062,-0.48828 0.58594,-0.6836 0.22785,-0.22785 0.50455,-0.37434 0.83008,-0.43945 0.0325,-1.72525 0.17902,-3.41796 0.43945,-5.07812 0.26041,-1.6927 0.39061,-3.40168 0.39063,-5.12696 -2e-5,-1.69269 -0.16278,-3.35284 -0.48829,-4.98047 -0.29298,-1.66013 -0.43946,-3.33656 -0.43945,-5.02929 -1e-5,-1.04164 0.1302,-2.05075 0.39063,-3.02735 0.29295,-0.97653 0.43944,-1.98564 0.43945,-3.02734 -1e-5,-0.55335 -0.13022,-1.07418 -0.39063,-1.5625 -0.22787,-0.5208 -0.3418,-1.05791 -0.34179,-1.61133 -1e-5,-0.42314 0.11392,-0.74866 0.34179,-0.97656 0.22786,-0.22783 0.37434,-0.5208 0.43946,-0.87891 l -0.14649,0 c -0.42319,4e-5 -0.63477,-0.22782 -0.63476,-0.68359 -1e-5,-0.45569 0.14647,-0.68355 0.43945,-0.68359 0.0977,4e-5 0.22785,0.0489 0.39063,0.14648 -2e-5,-0.26038 -0.0814,-0.52079 -0.24414,-0.78125 -0.13022,-0.26038 -0.29299,-0.52079 -0.48829,-0.78125 -0.16277,-0.26037 -0.32553,-0.52079 -0.48828,-0.78125 -0.16277,-0.29293 -0.24415,-0.58589 -0.24414,-0.87891 0.35806,-0.68355 0.58593,-1.28576 0.6836,-1.80664 0.13019,-0.52078 0.1953,-1.04162 0.19531,-1.5625 -1e-5,-0.45568 -0.0326,-0.91141 -0.0977,-1.36718 -0.0326,-0.48824 -0.0488,-1.0579 -0.0488,-1.70899 -1e-5,-0.71609 0.14648,-1.39969 0.43946,-2.05078 0.29295,-0.65099 0.43944,-1.33458 0.43945,-2.05078 -10e-6,-0.42312 -0.0977,-0.71609 -0.29297,-0.87891 -0.19532,-0.1627 -0.43946,-0.24408 -0.73242,-0.24414 -0.16277,6e-5 -0.37436,0.0326 -0.63477,0.0977 -1e-5,-0.42312 -0.0326,-0.99278 -0.0976,-1.70899 -0.0651,-0.74864 -0.19533,-1.46478 -0.39063,-2.14843 -0.19532,-0.68354 -0.48829,-1.26948 -0.8789,-1.75782 -0.35809,-0.52077 -0.84637,-0.78118 -1.46485,-0.78125 -0.39063,7e-5 -0.78125,0.0326 -1.17187,0.0977 -0.35808,0.0326 -0.73243,0.0489 -1.12305,0.0488 -0.61849,6e-5 -1.22071,-0.1627 -1.80664,-0.48828 -0.55339,-0.32546 -1.04167,-0.74864 -1.46484,-1.26953 -0.42318,-0.52077 -0.76498,-1.09044 -1.02539,-1.70899 -0.26042,-0.61842 -0.39063,-1.22064 -0.39063,-1.80664 0,-0.65097 0.19531,-1.05787 0.58594,-1.2207 0.39062,-0.1627 0.83007,-0.24408 1.31836,-0.24414 0.26041,6e-5 0.50455,0.0163 0.73242,0.0488 0.22786,6e-5 0.45572,6e-5 0.68359,0 0.35807,6e-5 0.73242,-0.0325 1.12305,-0.0977 0.39062,-0.0976 0.71614,-0.27663 0.97656,-0.53711 1.00911,-0.065 2.00195,-0.14642 2.97852,-0.24414 0.97655,-0.0976 1.96939,-0.14642 2.97851,-0.14649 0.55338,7e-5 1.04166,0.13028 1.46485,0.39063 0.42316,0.26048 0.83006,0.56973 1.2207,0.92773 0.42316,0.32559 0.84634,0.63484 1.26953,0.92774 0.42316,0.29303 0.89517,0.48835 1.41602,0.58594 -2e-5,0.71621 -0.0651,1.41608 -0.19531,2.09961 -0.0977,0.68365 -0.14651,1.38352 -0.14649,2.0996 -2e-5,0.68366 0.13019,1.3347 0.39063,1.95313 0.29295,0.586 0.43943,1.20449 0.43945,1.85547 -2e-5,0.19537 -0.0651,0.3093 -0.19531,0.3418 -0.13023,5e-5 -0.27671,0.0163 -0.43946,0.0488 -0.13022,0.0326 -0.26043,0.0977 -0.39062,0.19532 -0.0977,0.0977 -0.1465,0.32557 -0.14649,0.68359 -1e-5,0.29302 0.0488,0.56972 0.14649,0.83008 0.13019,0.26047 0.2604,0.52089 0.39062,0.78125 0.13019,0.22792 0.24413,0.47206 0.3418,0.73242 0.13019,0.26047 0.19529,0.53716 0.19531,0.83008 -2e-5,0.52088 -0.0977,1.00916 -0.29297,1.46484 -0.16277,0.45578 -0.24415,0.94406 -0.24414,1.46485 -1e-5,0.42322 0.0488,1.09054 0.14649,2.00195 0.0976,0.9115 0.2604,1.83924 0.48828,2.7832 0.22785,0.9115 0.52081,1.72531 0.87891,2.44141 0.35805,0.68363 0.7975,1.02543 1.31835,1.02539 0.68358,4e-5 1.33462,-0.16272 1.95313,-0.48828 0.61847,-0.32548 1.2044,-0.71611 1.75781,-1.17188 0.58592,-0.48823 1.1393,-0.99279 1.66016,-1.51367 0.52081,-0.55334 1.00909,-1.04162 1.46484,-1.46484 0.29294,-0.26037 0.8626,-0.52079 1.70899,-0.78125 0.84632,-0.26037 1.75778,-0.48824 2.73437,-0.6836 1.00908,-0.22781 1.96937,-0.40685 2.88086,-0.53711 0.94398,-0.13016 1.62757,-0.19526 2.05078,-0.19531 1.07418,5e-5 1.83916,0.0651 2.29492,0.19531 0.48825,0.13026 0.89515,0.32557 1.22071,0.58594 0.32548,0.22791 0.651,0.50461 0.97656,0.83008 0.32548,0.32557 0.87886,0.68364 1.66016,1.07422 0.32547,0.1628 0.63472,0.27674 0.92773,0.34179 0.32548,0.0326 0.61845,0.0814 0.87891,0.14649 0.29292,0.0326 0.56961,0.13025 0.83007,0.29297 0.29293,0.13025 0.56962,0.35812 0.83008,0.68359 0.42313,0.55343 0.94397,1.15564 1.5625,1.80664 0.651,0.61853 1.25321,1.28585 1.80664,2.00196 0.55334,0.68363 1.02534,1.39977 1.41602,2.14843 0.42312,0.74874 0.63471,1.49744 0.63476,2.2461 -5e-5,0.48831 -0.0977,0.97659 -0.29296,1.46484 -0.16282,0.48832 -0.2442,0.9766 -0.24414,1.46484 -6e-5,0.35811 0.0813,0.68363 0.24414,0.97657 0.1627,0.26045 0.24409,0.56969 0.24414,0.92773 -5e-5,0.39066 -0.0163,0.87894 -0.0488,1.46484 -0.0326,0.58597 -0.0977,1.20446 -0.19531,1.85547 -0.0977,0.61852 -0.22792,1.22073 -0.39063,1.80664 -0.13026,0.55342 -0.30929,0.97659 -0.53711,1.26954 0.48823,0.81382 0.81375,1.67645 0.97656,2.58789 0.16271,0.91148 0.24409,1.82293 0.24414,2.73437 -5e-5,1.13934 -0.0652,2.27866 -0.19531,3.41797 -0.0977,1.10679 -0.14653,2.22983 -0.14648,3.36914 -5e-5,1.52996 0.22781,2.71811 0.68359,3.56445 0.45568,0.81381 1.00906,1.44858 1.66016,1.9043 0.68354,0.42318 1.41596,0.73243 2.19726,0.92773 0.81375,0.19532 1.54617,0.43946 2.19727,0.73243 0.68353,0.26042 1.2532,0.65104 1.70898,1.17187 0.45567,0.48829 0.68354,1.25326 0.6836,2.29492"
         style="font-size:100px;font-variant:normal;font-stretch:normal;font-family:Special Elite;-inkscape-font-specification:Special Elite"
         id="path3152-2" />
      <path
         inkscape:connector-curvature="0"
         d="m 255.42081,472.88336 c -7e-5,0.58594 -0.19538,1.20443 -0.58594,1.85547 -0.35813,0.65104 -0.83014,1.23698 -1.41602,1.75781 -0.55344,0.55339 -1.15565,1.00912 -1.80664,1.36719 -0.6511,0.35807 -1.26959,0.53711 -1.85547,0.53711 -1.00917,0 -2.002,-0.0814 -2.97851,-0.24414 -0.97662,-0.16276 -1.98573,-0.24414 -3.02734,-0.24414 -0.48834,0 -1.058,-0.0326 -1.70899,-0.0977 -0.61854,-0.0651 -1.05799,-0.22786 -1.31836,-0.48828 -0.74874,-0.13021 -1.30213,-0.42318 -1.66015,-0.87891 -0.35812,-0.42317 -0.68364,-0.89518 -0.97657,-1.41601 -0.26046,-0.52083 -0.55343,-1.02539 -0.8789,-1.51367 -0.29302,-0.48828 -0.74875,-0.83008 -1.36719,-1.02539 -1.85551,0.8138 -3.49939,1.59505 -4.93164,2.34375 -1.39978,0.7487 -2.79952,1.39974 -4.19922,1.95312 -1.36722,0.58594 -2.84834,1.04167 -4.44336,1.36719 -1.56253,0.35807 -3.43427,0.53711 -5.61523,0.53711 -0.94404,0 -1.62763,-0.0488 -2.05079,-0.14649 -0.39064,-0.0976 -0.69989,-0.26041 -0.92773,-0.48828 -0.19533,-0.19531 -0.39065,-0.472 -0.58594,-0.83008 -0.16278,-0.35807 -0.4883,-0.79752 -0.97656,-1.31835 -0.26044,-0.26042 -0.52085,-0.40691 -0.78125,-0.43946 -0.22788,-0.0651 -0.45575,-0.0976 -0.68359,-0.0976 l -0.24414,0 c -0.29299,0 -0.56968,-0.0488 -0.83008,-0.14649 -0.22788,-0.13021 -0.40692,-0.45573 -0.53711,-0.97656 -0.0977,-0.39062 -0.29299,-0.83008 -0.58594,-1.31836 -0.29298,-0.52083 -0.63478,-1.04166 -1.02539,-1.5625 -0.35809,-0.52083 -0.73244,-0.99283 -1.12305,-1.41602 -0.39063,-0.42317 -0.74871,-0.74869 -1.07422,-0.97656 l -0.0488,-4.83398 c -0.0326,-3.2552 0.0651,-6.47785 0.29297,-9.66797 0.22785,-3.19008 0.34178,-6.41273 0.34179,-9.66797 -1e-5,-0.48825 -0.0163,-1.15557 -0.0488,-2.00195 -0.0326,-0.87888 -0.11394,-1.75778 -0.24414,-2.63672 -0.0977,-0.87887 -0.29298,-1.66012 -0.58593,-2.34375 -0.26043,-0.71611 -0.63478,-1.13929 -1.12305,-1.26953 -0.74871,-0.16272 -1.51368,-0.22783 -2.29492,-0.19532 -0.74871,4e-5 -1.49741,-0.0162 -2.2461,-0.0488 -0.7487,-0.0325 -1.48112,-0.14645 -2.19726,-0.3418 -0.6836,-0.19527 -1.33464,-0.61845 -1.95313,-1.26953 -0.35807,-0.35803 -0.69987,-0.79749 -1.02539,-1.31836 -0.29297,-0.52079 -0.43945,-1.0579 -0.43945,-1.61133 0,-0.81376 0.34179,-1.49735 1.02539,-2.05078 0.71614,-0.58589 1.5625,-1.0579 2.53906,-1.41602 0.97656,-0.35802 1.9694,-0.61844 2.97852,-0.78125 1.0091,-0.16271 1.82291,-0.24409 2.4414,-0.24414 1.79036,5e-5 3.48306,0.27674 5.07813,0.83008 1.62759,0.52088 3.1087,1.38351 4.44336,2.58789 0.0651,0.0652 0.0976,0.13026 0.0977,0.19531 -1e-5,0.0326 -0.0163,0.0652 -0.0488,0.0977 0.0651,0.94406 0.19529,1.88806 0.39062,2.83203 0.19529,0.9115 0.29295,1.83923 0.29297,2.7832 -2e-5,0.52088 -0.0814,1.00916 -0.24414,1.46485 -0.13023,0.45577 -0.19533,0.96032 -0.19531,1.51367 -2e-5,0.55342 0.0651,1.10681 0.19531,1.66016 0.13019,0.55342 0.19529,1.1068 0.19531,1.66015 -2e-5,0.35811 -0.0326,0.71618 -0.0976,1.07422 -0.0651,0.35811 -0.0977,0.71618 -0.0977,1.07422 -2e-5,1.00915 0.11391,2.00198 0.3418,2.97852 0.22784,0.94403 0.34177,1.9206 0.34179,2.92968 -2e-5,0.87893 -0.0977,1.74156 -0.29297,2.58789 -0.19533,0.81383 -0.42319,1.64391 -0.68359,2.49024 -0.22788,0.84637 -0.43947,1.69273 -0.63476,2.53906 -0.19534,0.81382 -0.29299,1.66017 -0.29297,2.53906 -2e-5,1.20444 0.24412,2.32749 0.73242,3.36914 0.48826,1.04168 1.1393,1.95314 1.95312,2.73438 0.81378,0.74871 1.74152,1.35092 2.78321,1.80664 1.07419,0.42318 2.19724,0.63477 3.36914,0.63477 1.00908,0 1.82288,-0.0976 2.4414,-0.29297 0.65101,-0.22786 1.17185,-0.472 1.5625,-0.73243 0.3906,-0.2604 0.69984,-0.48827 0.92774,-0.68359 0.26038,-0.22786 0.5208,-0.34179 0.78125,-0.3418 0.26038,1e-5 0.48825,0.0326 0.68359,0.0977 0.22783,0.0326 0.4557,0.0488 0.6836,0.0488 0.45569,1e-5 0.83004,-0.0977 1.12304,-0.29297 0.29293,-0.1953 0.55335,-0.42317 0.78125,-0.68359 0.26038,-0.26041 0.50452,-0.50455 0.73242,-0.73243 0.26038,-0.2604 0.5859,-0.43944 0.97657,-0.53711 0.74866,-0.16274 1.3997,-0.37433 1.95312,-0.63476 0.55335,-0.29296 0.83004,-0.87889 0.83008,-1.75781 -4e-5,-0.16275 0.0162,-0.30923 0.0488,-0.43946 0.0651,-0.13019 0.22782,-0.1953 0.48828,-0.19531 0.16272,1e-5 0.27665,0.0488 0.3418,0.14649 0.0976,0.0651 0.22782,0.13022 0.39062,0.19531 0.16272,-0.1302 0.27665,-0.30923 0.3418,-0.53711 0.0651,-0.22785 0.13016,-0.42316 0.19531,-0.58594 0.16272,-0.58592 0.45569,-1.10675 0.87891,-1.5625 0.45568,-0.45571 0.7161,-0.97654 0.78125,-1.5625 0.0651,-0.65102 0.22782,-1.25324 0.48828,-1.80664 0.26037,-0.55337 0.39058,-1.1393 0.39062,-1.75781 -4e-5,-0.55337 -0.14653,-1.04165 -0.43945,-1.46485 -0.29301,-0.42315 -0.4395,-0.92771 -0.43945,-1.51367 -5e-5,-0.65101 0.11388,-1.30206 0.34179,-1.95312 0.26038,-0.65102 0.39058,-1.30206 0.39063,-1.95313 -0.19536,-0.26039 -0.39067,-0.55335 -0.58594,-0.8789 -0.1628,-0.3255 -0.24418,-0.65102 -0.24414,-0.97657 -4e-5,-0.55335 0.0976,-0.91142 0.29297,-1.07422 0.19527,-0.19528 0.29292,-0.39059 0.29297,-0.58593 -5e-5,-0.29294 -0.0814,-0.58591 -0.24414,-0.87891 -0.13026,-0.32549 -0.29302,-0.63473 -0.48828,-0.92773 -0.19536,-0.29294 -0.3744,-0.58591 -0.53711,-0.87891 -0.13026,-0.29293 -0.19536,-0.60218 -0.19532,-0.92773 -4e-5,-0.32549 0.0488,-0.63473 0.14649,-0.92774 0.13016,-0.32548 0.19527,-0.66728 0.19531,-1.02539 -4e-5,-0.52079 -0.13025,-0.97652 -0.39062,-1.36719 -0.22791,-0.42313 -0.53716,-0.76493 -0.92774,-1.02539 -0.35811,-0.29293 -0.78129,-0.50451 -1.26953,-0.63476 -0.45577,-0.16272 -0.9115,-0.27666 -1.36719,-0.3418 -0.81384,-0.0976 -1.51371,-0.14644 -2.09961,-0.14648 -0.58597,4e-5 -1.1068,-0.0651 -1.5625,-0.19532 -0.42321,-0.16272 -0.83011,-0.43941 -1.2207,-0.83007 -0.35811,-0.39059 -0.73246,-1.02535 -1.12305,-1.9043 -0.22789,-0.52079 -0.34183,-0.96024 -0.34179,-1.31836 -4e-5,-0.78121 0.34176,-1.39969 1.02539,-1.85547 0.71611,-0.48823 1.54619,-0.84631 2.49023,-1.07422 0.94397,-0.26037 1.88798,-0.42313 2.83203,-0.48828 0.97652,-0.0976 1.7415,-0.14644 2.29492,-0.14648 0.5208,4e-5 1.02535,0.0489 1.51368,0.14648 0.52079,0.0652 1.04162,0.0977 1.5625,0.0977 0.55334,4e-5 1.09045,-0.0976 1.61132,-0.29297 0.55334,-0.22782 1.10673,-0.34175 1.66016,-0.3418 0.7812,5e-5 1.41597,0.22791 1.9043,0.68359 0.48823,0.42323 0.86258,0.99289 1.12304,1.70899 0.29292,0.68364 0.48823,1.48116 0.58594,2.39258 0.0976,0.87895 0.14643,1.77413 0.14649,2.68554 -6e-5,1.20447 -0.0489,2.34379 -0.14649,3.41797 -0.0651,1.07426 -0.0977,1.93689 -0.0976,2.58789 -6e-5,1.39978 0.13015,2.71814 0.39062,3.95508 0.29292,1.20446 0.4394,2.3275 0.43945,3.36914 -5e-5,0.32555 -0.0814,0.65107 -0.24414,0.97656 -0.13026,0.32555 -0.27674,0.65107 -0.43945,0.97657 -0.16281,0.32554 -0.32557,0.65106 -0.48828,0.97656 -0.13026,0.32555 -0.19536,0.65107 -0.19531,0.97656 -5e-5,0.26044 0.0488,0.48831 0.14648,0.6836 l 0.3418,2.83203 c -0.16281,0.13023 -0.26047,0.29299 -0.29297,0.48828 -0.0326,0.19533 -0.0489,0.37437 -0.0488,0.53711 -5e-5,0.52085 0.0488,1.04168 0.14649,1.5625 0.13015,0.4883 0.19526,1.00913 0.19531,1.5625 -5e-5,0.6185 -0.0652,1.23699 -0.19531,1.85547 -0.13026,0.58595 -0.19537,1.18816 -0.19532,1.80664 -5e-5,1.4974 0.50451,2.653 1.51367,3.46679 1.04162,0.78126 2.26232,1.17189 3.66211,1.17188 0.7812,10e-6 1.56245,-0.1302 2.34375,-0.39063 0.22781,0.48829 0.53705,0.92775 0.92774,1.31836 0.42312,0.35808 0.83002,0.71616 1.2207,1.07422 0.39056,0.35808 0.71609,0.76498 0.97656,1.22071 0.29291,0.45573 0.43939,1.00911 0.43946,1.66015"
         style="font-size:100px;font-variant:normal;font-stretch:normal;font-family:Special Elite;-inkscape-font-specification:Special Elite"
         id="path3154-9" />
    </g>
    <path
       sodipodi:type="arc"
       style="fill:#ff6600;fill-opacity:1;stroke:#ff6600;stroke-opacity:1"
       id="path4388-4"
       sodipodi:cx="184.36932"
       sodipodi:cy="-35.481606"
       sodipodi:rx="17.341669"
       sodipodi:ry="17.341669"
       d="m 201.71099,-35.481606 a 17.341669,17.341669 0 1 1 -34.68334,0 17.341669,17.341669 0 1 1 34.68334,0 z"
       transform="matrix(0.64074005,0,0,0.66116479,81.09044,414.03306)" />
  </g>
</svg>
